<svg width="261" height="260" viewBox="0 0 261 260" fill="none" xmlns="http://www.w3.org/2000/svg">
<g filter="url(#filter0_d_303_17166)">
<rect x="40.9329" y="36" width="180" height="180" rx="32" fill="white"/>
<rect x="41.4329" y="36.5" width="179" height="179" rx="31.5" stroke="#878787"/>
</g>
<g clip-path="url(#clip0_303_17166)">
<path d="M153.761 139.514C152.936 139.514 152.129 139.27 151.443 138.811C150.757 138.352 150.223 137.7 149.908 136.938C149.592 136.175 149.51 135.336 149.672 134.527C149.834 133.718 150.232 132.975 150.816 132.392C151.4 131.809 152.144 131.413 152.954 131.253C153.763 131.094 154.602 131.178 155.364 131.495C156.126 131.812 156.776 132.348 157.233 133.035C157.69 133.722 157.933 134.529 157.931 135.354C157.928 136.459 157.488 137.517 156.706 138.297C155.924 139.076 154.865 139.514 153.761 139.514ZM107.761 139.514C106.936 139.516 106.128 139.273 105.441 138.816C104.753 138.358 104.217 137.707 103.9 136.945C103.584 136.182 103.5 135.343 103.661 134.533C103.821 133.724 104.219 132.98 104.802 132.396C105.386 131.812 106.13 131.415 106.94 131.254C107.75 131.093 108.589 131.177 109.352 131.494C110.114 131.811 110.765 132.347 111.223 133.034C111.68 133.721 111.923 134.529 111.921 135.354C111.918 136.457 111.479 137.513 110.7 138.293C109.92 139.073 108.864 139.512 107.761 139.514ZM155.271 114.424L163.591 100.024C163.819 99.625 163.88 99.1514 163.76 98.7073C163.64 98.2632 163.349 97.8846 162.951 97.6544C162.755 97.5406 162.538 97.467 162.313 97.4378C162.088 97.4086 161.86 97.4245 161.641 97.4844C161.219 97.616 160.862 97.9016 160.641 98.2844L152.161 112.884C145.431 109.866 138.138 108.305 130.761 108.305C123.385 108.305 116.092 109.866 109.361 112.884L100.931 98.2844C100.698 97.8916 100.322 97.6048 99.8811 97.4844C99.6624 97.4245 99.4339 97.4086 99.209 97.4378C98.9841 97.467 98.7673 97.5406 98.5711 97.6544C98.1728 97.8846 97.8818 98.2632 97.7619 98.7073C97.642 99.1514 97.7028 99.625 97.9311 100.024L106.251 114.424C99.0611 118.339 92.9633 123.988 88.5117 130.858C84.0601 137.729 81.3959 145.603 80.7611 153.764H180.761C180.126 145.603 177.462 137.729 173.011 130.858C168.559 123.988 162.461 118.339 155.271 114.424Z" fill="#A2A2A2"/>
</g>
<defs>
<filter id="filter0_d_303_17166" x="0.932861" y="0" width="260" height="260" filterUnits="userSpaceOnUse" color-interpolation-filters="sRGB">
<feFlood flood-opacity="0" result="BackgroundImageFix"/>
<feColorMatrix in="SourceAlpha" type="matrix" values="0 0 0 0 0 0 0 0 0 0 0 0 0 0 0 0 0 0 127 0" result="hardAlpha"/>
<feOffset dy="4"/>
<feGaussianBlur stdDeviation="20"/>
<feComposite in2="hardAlpha" operator="out"/>
<feColorMatrix type="matrix" values="0 0 0 0 0.0367917 0 0 0 0 0.0348958 0 0 0 0 0.0484375 0 0 0 0.1 0"/>
<feBlend mode="normal" in2="BackgroundImageFix" result="effect1_dropShadow_303_17166"/>
<feBlend mode="normal" in="SourceGraphic" in2="effect1_dropShadow_303_17166" result="shape"/>
</filter>
<clipPath id="clip0_303_17166">
<rect width="100" height="56.34" fill="white" transform="translate(80.7611 97.4243)"/>
</clipPath>
</defs>
</svg>
