<svg width="261" height="261" viewBox="0 0 261 261" fill="none" xmlns="http://www.w3.org/2000/svg">
<g filter="url(#filter0_d_301_8811)">
<rect x="40.1719" y="36.4058" width="180" height="180" rx="32" fill="#1D1F23"/>
<rect x="40.6719" y="36.9058" width="179" height="179" rx="31.5" stroke="black"/>
</g>
<path d="M153.013 139.922C150.717 139.922 148.849 138.053 148.849 135.757C148.849 133.461 150.717 131.593 153.013 131.593C155.309 131.593 157.177 133.46 157.177 135.757C157.177 138.053 155.309 139.922 153.013 139.922ZM106.987 139.922C104.691 139.922 102.824 138.053 102.824 135.757C102.824 133.461 104.691 131.593 106.987 131.593C109.283 131.593 111.151 133.46 111.151 135.757C111.151 138.053 109.284 139.922 106.987 139.922ZM154.506 114.839L162.828 100.426C163.057 100.028 163.119 99.5554 163 99.1121C162.882 98.6687 162.592 98.2905 162.195 98.0606C161.797 97.8316 161.324 97.7697 160.881 97.8885C160.438 98.0074 160.06 98.2971 159.83 98.6943L151.403 113.29C144.959 110.349 137.722 108.711 130 108.711C122.278 108.711 115.041 110.349 108.597 113.29L100.17 98.6943C99.9405 98.2971 99.5624 98.0074 99.119 97.8885C98.6756 97.7697 98.2033 97.8316 97.8055 98.0606C97.408 98.2903 97.1179 98.6685 96.9991 99.1119C96.8802 99.5554 96.9423 100.028 97.1717 100.426L105.494 114.839C91.2035 122.611 81.4298 137.078 80 154.171H180C178.569 137.079 168.795 122.611 154.506 114.839" fill="#3DDB85"/>
<defs>
<filter id="filter0_d_301_8811" x="0.171875" y="0.405762" width="260" height="260" filterUnits="userSpaceOnUse" color-interpolation-filters="sRGB">
<feFlood flood-opacity="0" result="BackgroundImageFix"/>
<feColorMatrix in="SourceAlpha" type="matrix" values="0 0 0 0 0 0 0 0 0 0 0 0 0 0 0 0 0 0 127 0" result="hardAlpha"/>
<feOffset dy="4"/>
<feGaussianBlur stdDeviation="20"/>
<feComposite in2="hardAlpha" operator="out"/>
<feColorMatrix type="matrix" values="0 0 0 0 0.0367917 0 0 0 0 0.0348958 0 0 0 0 0.0484375 0 0 0 0.1 0"/>
<feBlend mode="normal" in2="BackgroundImageFix" result="effect1_dropShadow_301_8811"/>
<feBlend mode="normal" in="SourceGraphic" in2="effect1_dropShadow_301_8811" result="shape"/>
</filter>
</defs>
</svg>
