<svg width="261" height="261" viewBox="0 0 261 261" fill="none" xmlns="http://www.w3.org/2000/svg">
<g filter="url(#filter0_d_303_17184)">
<rect x="40.3433" y="36.4058" width="180" height="180" rx="32" fill="white"/>
<rect x="40.8433" y="36.9058" width="179" height="179" rx="31.5" stroke="#878787"/>
</g>
<g clip-path="url(#clip0_303_17184)">
<path d="M174.365 105.455C174.399 103.909 174.026 102.382 173.285 101.025C172.513 99.7147 171.404 98.6342 170.075 97.895C158.255 91.0816 146.442 84.275 134.635 77.475C133.22 76.5822 131.578 76.1168 129.905 76.1345C128.233 76.1523 126.601 76.6524 125.205 77.575C120.495 80.345 96.9451 93.835 89.9351 97.895C88.5823 98.626 87.462 99.7222 86.7018 101.059C85.9416 102.395 85.572 103.919 85.6351 105.455V146.545C85.5881 148.057 85.9326 149.555 86.6351 150.895C87.4098 152.263 88.5533 153.385 89.9351 154.135C96.9351 158.195 120.495 171.685 125.195 174.455C126.591 175.378 128.223 175.878 129.895 175.895C131.568 175.913 133.21 175.448 134.625 174.555C146.438 167.715 158.255 160.908 170.075 154.135C171.437 153.381 172.565 152.267 173.335 150.915C174.033 149.577 174.378 148.083 174.335 146.575V105.455" fill="#838383"/>
<path d="M130.135 125.865L86.635 150.895C87.4098 152.263 88.5532 153.385 89.935 154.135C96.935 158.195 120.495 171.685 125.195 174.455C126.59 175.378 128.223 175.878 129.895 175.895C131.568 175.913 133.21 175.448 134.625 174.555C146.438 167.715 158.255 160.908 170.075 154.135C171.437 153.381 172.564 152.267 173.335 150.915L130.135 125.915" fill="#3E3E3E"/>
<path d="M117.265 133.275C118.55 135.53 120.41 137.403 122.656 138.704C124.902 140.004 127.453 140.685 130.048 140.677C132.644 140.669 135.19 139.972 137.428 138.658C139.666 137.343 141.514 135.458 142.785 133.195L130.135 125.865L117.265 133.275Z" fill="#3E3E3E"/>
<path d="M174.365 105.455C174.399 103.909 174.026 102.382 173.285 101.025L130.135 125.865L173.335 150.865C174.033 149.527 174.378 148.033 174.335 146.525V105.455" fill="#4C4C4C"/>
<path d="M171.995 127.655H168.635V131.035H165.235V127.655H161.865V124.285H165.235V120.905H168.635V124.285H172.015L171.995 127.655ZM159.635 127.655H156.295V131.035H152.925V127.655H149.545V124.285H152.925V120.905H156.295V124.285H159.635V127.655Z" fill="white"/>
<path d="M142.785 133.195C141.197 136.013 138.722 138.228 135.746 139.494C132.769 140.76 129.457 141.006 126.326 140.195C123.194 139.384 120.419 137.56 118.431 135.008C116.443 132.457 115.355 129.319 115.335 126.084C115.315 122.85 116.364 119.699 118.32 117.123C120.276 114.546 123.029 112.689 126.15 111.839C129.272 110.989 132.586 111.195 135.578 112.424C138.57 113.653 141.072 115.837 142.695 118.635L155.515 111.255C152.258 105.641 147.238 101.26 141.236 98.7924C135.233 96.3245 128.584 95.9078 122.32 97.607C116.057 99.3063 110.529 103.026 106.597 108.189C102.665 113.353 100.547 119.67 100.574 126.16C100.6 132.65 102.769 138.949 106.744 144.08C110.718 149.211 116.276 152.886 122.553 154.534C128.83 156.182 135.476 155.711 141.458 153.194C147.44 150.677 152.424 146.255 155.635 140.615L142.785 133.195Z" fill="white"/>
</g>
<defs>
<filter id="filter0_d_303_17184" x="0.343262" y="0.405762" width="260" height="260" filterUnits="userSpaceOnUse" color-interpolation-filters="sRGB">
<feFlood flood-opacity="0" result="BackgroundImageFix"/>
<feColorMatrix in="SourceAlpha" type="matrix" values="0 0 0 0 0 0 0 0 0 0 0 0 0 0 0 0 0 0 127 0" result="hardAlpha"/>
<feOffset dy="4"/>
<feGaussianBlur stdDeviation="20"/>
<feComposite in2="hardAlpha" operator="out"/>
<feColorMatrix type="matrix" values="0 0 0 0 0.0367917 0 0 0 0 0.0348958 0 0 0 0 0.0484375 0 0 0 0.1 0"/>
<feBlend mode="normal" in2="BackgroundImageFix" result="effect1_dropShadow_303_17184"/>
<feBlend mode="normal" in="SourceGraphic" in2="effect1_dropShadow_303_17184" result="shape"/>
</filter>
<clipPath id="clip0_303_17184">
<rect width="88.73" height="99.73" fill="white" transform="translate(85.635 76.135)"/>
</clipPath>
</defs>
</svg>
