<svg width="261" height="260" viewBox="0 0 261 260" fill="none" xmlns="http://www.w3.org/2000/svg">
<g filter="url(#filter0_d_303_17211)">
<rect x="40.6196" y="36" width="180" height="180" rx="32" fill="white"/>
<rect x="41.1196" y="36.5" width="179" height="179" rx="31.5" stroke="#878787"/>
</g>
<g clip-path="url(#clip0_303_17211)">
<path d="M175.085 76L167.085 166L130.915 176L94.915 166L86.915 76H175.085Z" fill="#525252"/>
<path d="M160.175 160.26L167.045 83.3601H131.045V168.36L160.175 160.26Z" fill="#626262"/>
<path d="M105.315 116.74L106.315 127.74H131.015V116.74H105.315Z" fill="#EBEBEB"/>
<path d="M131.005 94.3999H103.325L104.325 105.4H131.005V94.3999Z" fill="#EBEBEB"/>
<path d="M131.005 156.89V145.41H130.915L118.665 142.1L117.915 133.3H106.795L108.335 150.63L130.915 156.91L131.005 156.89Z" fill="#EBEBEB"/>
<path d="M144.555 127.78L143.275 142.09L130.965 145.42V156.9L153.595 150.63L153.765 148.77L156.355 119.7L156.625 116.7L158.625 94.3601H130.965V105.36H146.515L145.515 116.66H130.965V127.66L144.555 127.78Z" fill="white"/>
</g>
<defs>
<filter id="filter0_d_303_17211" x="0.619629" y="0" width="260" height="260" filterUnits="userSpaceOnUse" color-interpolation-filters="sRGB">
<feFlood flood-opacity="0" result="BackgroundImageFix"/>
<feColorMatrix in="SourceAlpha" type="matrix" values="0 0 0 0 0 0 0 0 0 0 0 0 0 0 0 0 0 0 127 0" result="hardAlpha"/>
<feOffset dy="4"/>
<feGaussianBlur stdDeviation="20"/>
<feComposite in2="hardAlpha" operator="out"/>
<feColorMatrix type="matrix" values="0 0 0 0 0.0367917 0 0 0 0 0.0348958 0 0 0 0 0.0484375 0 0 0 0.1 0"/>
<feBlend mode="normal" in2="BackgroundImageFix" result="effect1_dropShadow_303_17211"/>
<feBlend mode="normal" in="SourceGraphic" in2="effect1_dropShadow_303_17211" result="shape"/>
</filter>
<clipPath id="clip0_303_17211">
<rect width="88.17" height="100" fill="white" transform="translate(86.915 76)"/>
</clipPath>
</defs>
</svg>
