<svg width="261" height="261" viewBox="0 0 261 261" fill="none" xmlns="http://www.w3.org/2000/svg">
<g filter="url(#filter0_d_303_17212)">
<rect x="40.1719" y="36.4058" width="180" height="180" rx="32" fill="white"/>
<rect x="40.6719" y="36.9058" width="179" height="179" rx="31.5" stroke="#878787"/>
</g>
<g clip-path="url(#clip0_303_17212)">
<path d="M179 117.21C178.73 116.99 176.2 115.08 170.86 115.08C169.449 115.09 168.042 115.21 166.65 115.44C166.279 113.255 165.45 111.173 164.217 109.331C162.985 107.489 161.378 105.928 159.5 104.75L158.07 103.92L157.13 105.29C155.937 107.126 155.074 109.157 154.58 111.29C154.085 113.155 153.978 115.102 154.267 117.01C154.556 118.918 155.235 120.746 156.26 122.38C153.974 123.419 151.509 124.01 149 124.12H83.13C82.3101 124.125 81.5244 124.45 80.9399 125.025C80.3554 125.6 80.0182 126.38 80 127.2C79.9305 132.969 80.9098 138.702 82.89 144.12C85.16 150.12 88.53 154.46 92.89 157.12C97.81 160.12 105.8 161.86 114.89 161.86C118.986 161.87 123.073 161.499 127.1 160.75C132.696 159.722 138.08 157.765 143.03 154.96C147.114 152.621 150.792 149.636 153.92 146.12C159.14 140.22 162.25 133.64 164.56 127.79H165.48C167.528 127.87 169.571 127.54 171.489 126.818C173.408 126.097 175.162 124.999 176.65 123.59C177.935 122.363 178.938 120.872 179.59 119.22L180 118.03L179 117.21Z" fill="#7D7D7D"/>
<path d="M89.24 122.12H98.06C98.162 122.12 98.263 122.1 98.357 122.061C98.4511 122.021 98.5364 121.964 98.6081 121.891C98.6797 121.818 98.7362 121.732 98.7743 121.638C98.8124 121.543 98.8314 121.442 98.83 121.34V113.52C98.8314 113.419 98.8127 113.32 98.7751 113.226C98.7375 113.133 98.6817 113.048 98.611 112.976C98.5403 112.905 98.4561 112.848 98.3632 112.809C98.2703 112.77 98.1707 112.75 98.07 112.75H89.24C89.1385 112.749 89.0378 112.768 88.9438 112.806C88.8498 112.844 88.7643 112.901 88.6926 112.973C88.6208 113.044 88.5641 113.13 88.5259 113.224C88.4877 113.318 88.4687 113.419 88.47 113.52V121.38C88.4687 121.482 88.4877 121.583 88.5258 121.678C88.5639 121.772 88.6204 121.858 88.692 121.931C88.7636 122.004 88.849 122.061 88.943 122.101C89.0371 122.14 89.1381 122.16 89.24 122.16V122.12Z" fill="#7D7D7D"/>
<path d="M101.4 122.12H110.23C110.435 122.117 110.631 122.034 110.775 121.888C110.919 121.742 111 121.545 111 121.34V113.52C111 113.316 110.919 113.12 110.775 112.976C110.63 112.831 110.434 112.75 110.23 112.75H101.4C101.298 112.749 101.197 112.768 101.102 112.806C101.008 112.844 100.922 112.9 100.849 112.972C100.777 113.044 100.719 113.129 100.68 113.223C100.64 113.317 100.62 113.418 100.62 113.52V121.38C100.623 121.586 100.706 121.783 100.851 121.929C100.997 122.074 101.194 122.157 101.4 122.16" fill="#7D7D7D"/>
<path d="M113.75 122.12H122.58C122.785 122.117 122.981 122.034 123.125 121.888C123.269 121.742 123.35 121.545 123.35 121.34V113.52C123.35 113.419 123.33 113.319 123.291 113.225C123.253 113.132 123.196 113.047 123.125 112.976C123.053 112.904 122.968 112.847 122.875 112.809C122.781 112.77 122.681 112.75 122.58 112.75H113.75C113.649 112.749 113.548 112.768 113.454 112.806C113.36 112.844 113.274 112.901 113.203 112.973C113.131 113.044 113.074 113.13 113.036 113.224C112.998 113.318 112.979 113.419 112.98 113.52V121.38C112.979 121.482 112.998 121.583 113.036 121.678C113.074 121.772 113.13 121.858 113.202 121.931C113.274 122.004 113.359 122.061 113.453 122.101C113.547 122.14 113.648 122.16 113.75 122.16V122.12Z" fill="#7D7D7D"/>
<path d="M126 122.12H134.83C134.932 122.12 135.033 122.1 135.127 122.061C135.221 122.021 135.306 121.964 135.378 121.891C135.45 121.818 135.506 121.732 135.544 121.638C135.582 121.543 135.601 121.442 135.6 121.34V113.52C135.601 113.419 135.582 113.318 135.544 113.224C135.506 113.13 135.449 113.044 135.377 112.973C135.306 112.901 135.22 112.844 135.126 112.806C135.032 112.768 134.931 112.749 134.83 112.75H126C125.796 112.75 125.6 112.831 125.456 112.976C125.311 113.12 125.23 113.316 125.23 113.52V121.38C125.24 121.578 125.325 121.765 125.468 121.903C125.612 122.04 125.802 122.118 126 122.12Z" fill="#7D7D7D"/>
<path d="M101.4 110.84H110.23C110.426 110.84 110.614 110.766 110.757 110.632C110.901 110.499 110.987 110.315 111 110.12V102.21C111 102.006 110.919 101.81 110.774 101.666C110.63 101.521 110.434 101.44 110.23 101.44H101.4C101.298 101.439 101.198 101.458 101.104 101.496C101.01 101.534 100.924 101.591 100.852 101.663C100.781 101.734 100.724 101.82 100.686 101.914C100.648 102.008 100.629 102.109 100.63 102.21V110.12C100.64 110.316 100.726 110.501 100.87 110.635C101.013 110.769 101.203 110.843 101.4 110.84Z" fill="#7D7D7D"/>
<path d="M113.75 110.84H122.58C122.681 110.84 122.781 110.82 122.875 110.781C122.968 110.743 123.053 110.686 123.125 110.614C123.196 110.543 123.253 110.458 123.291 110.365C123.33 110.271 123.35 110.171 123.35 110.07V102.21C123.35 102.109 123.33 102.009 123.291 101.915C123.253 101.822 123.196 101.737 123.125 101.666C123.053 101.594 122.968 101.537 122.875 101.499C122.781 101.46 122.681 101.44 122.58 101.44H113.75C113.649 101.439 113.548 101.458 113.454 101.496C113.36 101.534 113.274 101.591 113.203 101.663C113.131 101.734 113.074 101.82 113.036 101.914C112.998 102.008 112.979 102.109 112.98 102.21V110.12C112.99 110.316 113.076 110.501 113.22 110.635C113.363 110.769 113.554 110.843 113.75 110.84Z" fill="#7D7D7D"/>
<path d="M126 110.84H134.83C134.931 110.841 135.032 110.822 135.126 110.784C135.22 110.746 135.306 110.689 135.377 110.617C135.449 110.546 135.506 110.46 135.544 110.366C135.582 110.272 135.601 110.171 135.6 110.07V102.21C135.601 102.109 135.582 102.008 135.544 101.914C135.506 101.82 135.449 101.734 135.377 101.663C135.306 101.591 135.22 101.534 135.126 101.496C135.032 101.458 134.931 101.439 134.83 101.44H126C125.796 101.44 125.6 101.521 125.456 101.666C125.311 101.81 125.23 102.006 125.23 102.21V110.12C125.243 110.315 125.329 110.499 125.472 110.632C125.615 110.766 125.804 110.84 126 110.84Z" fill="#7D7D7D"/>
<path d="M126 99.5301H134.83C135.034 99.5301 135.23 99.4489 135.374 99.3045C135.519 99.1601 135.6 98.9643 135.6 98.7601V90.8901C135.602 90.7842 135.581 90.6791 135.54 90.5815C135.499 90.484 135.438 90.3961 135.36 90.3236C135.283 90.2511 135.192 90.1956 135.092 90.1605C134.992 90.1255 134.886 90.1117 134.78 90.1201H126C125.796 90.1201 125.6 90.2012 125.456 90.3456C125.311 90.49 125.23 90.6858 125.23 90.8901V98.7601C125.233 98.9635 125.315 99.1578 125.458 99.3017C125.602 99.4455 125.797 99.5275 126 99.5301Z" fill="#7D7D7D"/>
<path d="M138.26 122.12H147.09C147.192 122.12 147.293 122.1 147.387 122.061C147.481 122.021 147.566 121.964 147.638 121.891C147.71 121.818 147.766 121.732 147.804 121.638C147.842 121.543 147.861 121.442 147.86 121.34V113.52C147.861 113.419 147.842 113.318 147.804 113.224C147.766 113.13 147.709 113.044 147.637 112.973C147.566 112.901 147.48 112.844 147.386 112.806C147.292 112.768 147.191 112.749 147.09 112.75H138.26C138.159 112.75 138.059 112.77 137.965 112.809C137.872 112.847 137.787 112.904 137.716 112.976C137.644 113.047 137.587 113.132 137.549 113.225C137.51 113.319 137.49 113.419 137.49 113.52V121.38C137.49 121.585 137.571 121.782 137.715 121.928C137.859 122.074 138.055 122.157 138.26 122.16" fill="#7D7D7D"/>
</g>
<defs>
<filter id="filter0_d_303_17212" x="0.171875" y="0.405762" width="260" height="260" filterUnits="userSpaceOnUse" color-interpolation-filters="sRGB">
<feFlood flood-opacity="0" result="BackgroundImageFix"/>
<feColorMatrix in="SourceAlpha" type="matrix" values="0 0 0 0 0 0 0 0 0 0 0 0 0 0 0 0 0 0 127 0" result="hardAlpha"/>
<feOffset dy="4"/>
<feGaussianBlur stdDeviation="20"/>
<feComposite in2="hardAlpha" operator="out"/>
<feColorMatrix type="matrix" values="0 0 0 0 0.0367917 0 0 0 0 0.0348958 0 0 0 0 0.0484375 0 0 0 0.1 0"/>
<feBlend mode="normal" in2="BackgroundImageFix" result="effect1_dropShadow_303_17212"/>
<feBlend mode="normal" in="SourceGraphic" in2="effect1_dropShadow_303_17212" result="shape"/>
</filter>
<clipPath id="clip0_303_17212">
<rect width="100" height="71.76" fill="white" transform="translate(80 90.12)"/>
</clipPath>
</defs>
</svg>
