<svg width="261" height="261" viewBox="0 0 261 261" fill="none" xmlns="http://www.w3.org/2000/svg">
<g filter="url(#filter0_d_301_8813)">
<rect x="40.1719" y="36.4058" width="180" height="180" rx="32" fill="#1D1F23"/>
<rect x="40.6719" y="36.9058" width="179" height="179" rx="31.5" stroke="black"/>
</g>
<path d="M179.014 117.209C178.743 116.994 176.211 115.082 170.871 115.082C169.461 115.088 168.055 115.209 166.664 115.444C165.631 108.361 159.775 104.907 159.512 104.752L158.079 103.926L157.136 105.286C155.955 107.114 155.093 109.129 154.586 111.246C153.63 115.289 154.212 119.087 156.266 122.333C153.786 123.715 149.807 124.056 149.002 124.086H83.1303C81.4097 124.088 80.0136 125.479 80.0042 127.199C79.9274 132.97 80.9051 138.706 82.8891 144.125C85.1583 150.076 88.5342 154.46 92.9262 157.142C97.8478 160.156 105.844 161.879 114.908 161.879C119.002 161.891 123.089 161.521 127.115 160.772C132.711 159.744 138.096 157.789 143.047 154.985C147.126 152.622 150.798 149.617 153.919 146.084C159.138 140.177 162.247 133.597 164.559 127.75H165.48C171.194 127.75 174.708 125.464 176.646 123.548C177.933 122.325 178.939 120.837 179.591 119.186L180 117.989L179.014 117.209Z" fill="#2496ED"/>
<path d="M89.236 122.157H98.0631C98.4888 122.157 98.8338 121.812 98.8338 121.386V113.523C98.8362 113.098 98.493 112.751 98.0674 112.748C98.066 112.748 98.0645 112.748 98.0631 112.748H89.236C88.8103 112.748 88.4653 113.094 88.4653 113.519V113.523V121.386C88.4653 121.812 88.8103 122.157 89.236 122.157Z" fill="#2496ED"/>
<path d="M101.4 122.157H110.227C110.653 122.157 110.998 121.812 110.998 121.386V113.523C111 113.098 110.657 112.751 110.231 112.748C110.23 112.748 110.229 112.748 110.227 112.748H101.4C100.972 112.748 100.625 113.095 100.625 113.523V121.386C100.628 121.812 100.974 122.157 101.4 122.157Z" fill="#2496ED"/>
<path d="M113.749 122.157H122.576C123.002 122.157 123.347 121.812 123.347 121.386V113.523C123.35 113.098 123.006 112.751 122.581 112.748C122.579 112.748 122.578 112.748 122.576 112.748H113.749C113.323 112.748 112.979 113.094 112.979 113.519V113.523V121.386C112.979 121.812 113.324 122.157 113.749 122.157Z" fill="#2496ED"/>
<path d="M125.952 122.157H134.779C135.206 122.157 135.552 121.813 135.554 121.386V113.523C135.554 113.095 135.208 112.748 134.779 112.748H125.952C125.527 112.748 125.182 113.094 125.182 113.519V113.523V121.386C125.182 121.812 125.527 122.157 125.952 122.157Z" fill="#2496ED"/>
<path d="M101.4 110.845H110.227C110.653 110.843 110.998 110.497 110.998 110.07V102.208C110.998 101.782 110.653 101.437 110.227 101.437H101.4C100.974 101.437 100.627 101.781 100.625 102.208V110.07C100.627 110.497 100.973 110.843 101.4 110.845Z" fill="#2496ED"/>
<path d="M113.749 110.845H122.576C123.003 110.843 123.347 110.497 123.347 110.07V102.208C123.347 101.782 123.002 101.437 122.576 101.437H113.749C113.323 101.437 112.979 101.782 112.979 102.208V110.07C112.979 110.497 113.323 110.843 113.749 110.845Z" fill="#2496ED"/>
<path d="M125.952 110.845H134.779C135.207 110.843 135.552 110.497 135.554 110.07V102.208C135.552 101.781 135.206 101.437 134.779 101.437H125.952C125.527 101.437 125.182 101.782 125.182 102.208V110.07C125.182 110.497 125.526 110.843 125.952 110.845Z" fill="#2496ED"/>
<path d="M125.952 99.5295H134.779C135.206 99.5295 135.552 99.1851 135.554 98.7588V90.8918C135.552 90.4654 135.206 90.1211 134.779 90.1211H125.952C125.527 90.1211 125.182 90.4661 125.182 90.8918V98.7587C125.182 99.1844 125.527 99.5295 125.952 99.5295Z" fill="#2496ED"/>
<path d="M138.263 122.157H147.09C147.516 122.157 147.863 121.813 147.865 121.386V113.523C147.865 113.095 147.518 112.748 147.09 112.748H138.263C137.837 112.748 137.492 113.094 137.492 113.519V113.523V121.386C137.492 121.812 137.837 122.157 138.263 122.157Z" fill="#2496ED"/>
<defs>
<filter id="filter0_d_301_8813" x="0.171875" y="0.405762" width="260" height="260" filterUnits="userSpaceOnUse" color-interpolation-filters="sRGB">
<feFlood flood-opacity="0" result="BackgroundImageFix"/>
<feColorMatrix in="SourceAlpha" type="matrix" values="0 0 0 0 0 0 0 0 0 0 0 0 0 0 0 0 0 0 127 0" result="hardAlpha"/>
<feOffset dy="4"/>
<feGaussianBlur stdDeviation="20"/>
<feComposite in2="hardAlpha" operator="out"/>
<feColorMatrix type="matrix" values="0 0 0 0 0.0367917 0 0 0 0 0.0348958 0 0 0 0 0.0484375 0 0 0 0.1 0"/>
<feBlend mode="normal" in2="BackgroundImageFix" result="effect1_dropShadow_301_8813"/>
<feBlend mode="normal" in="SourceGraphic" in2="effect1_dropShadow_301_8813" result="shape"/>
</filter>
</defs>
</svg>
