<?xml version="1.0" standalone="no"?>
<!DOCTYPE svg PUBLIC "-//W3C//DTD SVG 20010904//EN"
 "http://www.w3.org/TR/2001/REC-SVG-20010904/DTD/svg10.dtd">
<svg version="1.0" xmlns="http://www.w3.org/2000/svg"
 width="438.000000pt" height="570.000000pt" viewBox="0 0 438.000000 570.000000"
 preserveAspectRatio="xMidYMid meet">
<metadata>
Created by potrace 1.16, written by Peter Selinger 2001-2019
</metadata>
<g transform="translate(0.000000,570.000000) scale(0.100000,-0.100000)"
fill="#000000" stroke="none">
<path d="M2534 5286 c-125 -46 -428 -177 -432 -187 -2 -5 -8 -7 -13 -3 -5 3
-9 1 -9 -4 0 -9 -47 -27 -62 -24 -5 1 -8 -3 -8 -9 0 -5 -4 -7 -10 -4 -5 3 -10
2 -10 -4 0 -13 -209 -123 -221 -115 -5 3 -12 -2 -15 -10 -3 -9 -12 -16 -19
-16 -7 0 -19 -8 -26 -17 -13 -17 -13 -17 6 -3 19 14 19 14 6 -3 -8 -10 -20
-16 -27 -13 -8 3 -13 0 -11 -6 1 -7 -13 -17 -32 -24 -19 -6 -45 -22 -59 -35
-14 -13 -27 -23 -29 -21 -2 1 -17 -14 -35 -33 -26 -30 -33 -50 -44 -123 -7
-48 -20 -108 -28 -133 -19 -55 -18 -119 1 -119 7 0 13 -4 13 -10 0 -13 37 -13
46 1 3 6 17 8 30 5 38 -10 73 13 86 56 9 30 9 67 -1 160 -7 66 -17 131 -22
145 -5 14 -7 29 -3 34 3 5 38 31 77 58 l73 49 74 -14 c41 -8 116 -20 165 -27
79 -12 90 -16 88 -33 -2 -10 -4 -35 -6 -54 -2 -19 -7 -43 -11 -52 -8 -18 9
-58 24 -58 5 0 12 -16 16 -36 4 -24 14 -39 30 -46 32 -15 36 -29 40 -140 4
-90 3 -97 -13 -91 -15 5 -16 4 -7 -8 7 -8 14 -32 17 -54 3 -22 11 -61 18 -87
7 -27 10 -51 6 -54 -9 -9 -177 -13 -172 -4 3 5 -3 6 -13 3 -11 -2 -59 5 -108
17 -200 48 -238 46 -297 -20 -37 -40 -60 -101 -73 -187 -3 -26 -10 -55 -15
-63 -6 -9 -7 2 -3 30 12 86 35 175 55 209 16 26 17 31 4 21 -33 -27 -48 -71
-75 -212 l-11 -58 -43 0 c-23 0 -61 -9 -83 -20 -23 -11 -48 -17 -56 -14 -11 4
-307 -42 -394 -61 -26 -6 -33 -26 -37 -103 -2 -32 -6 -64 -10 -70 -4 -6 -4
-21 -1 -34 3 -13 1 -48 -4 -78 -9 -53 -1 -77 21 -64 11 7 11 13 -12 -207 -12
-105 -19 -197 -17 -203 4 -12 37 247 44 347 6 74 18 84 56 44 32 -34 126 -84
189 -100 83 -22 235 -8 276 25 9 8 12 1 11 -33 0 -55 -24 -267 -30 -273 -2 -2
-76 -10 -164 -16 -87 -6 -161 -13 -164 -15 -2 -3 3 -5 11 -5 13 0 14 -7 7 -42
-4 -24 -8 -46 -9 -50 0 -5 -10 -8 -22 -8 -21 -1 -21 -2 -5 -11 26 -15 20 -29
-13 -29 -19 0 -30 -5 -30 -14 0 -8 -3 -21 -6 -30 -4 -11 0 -16 12 -17 14 -1
13 -3 -6 -9 l-25 -8 28 -1 c34 -1 34 0 2 -197 -14 -85 -28 -185 -31 -224 -4
-38 -10 -68 -13 -65 -4 2 -44 7 -89 10 -147 12 -183 -9 -136 -78 46 -68 136
-90 494 -122 231 -21 240 -23 240 -42 0 -9 7 -25 17 -35 24 -27 217 -86 396
-122 l159 -32 -45 -55 c-25 -29 -67 -74 -94 -99 -45 -42 -137 -160 -114 -145
12 7 13 -17 1 -55 -7 -24 -7 -24 -17 10 -9 31 -10 33 -17 13 -5 -14 3 -42 24
-87 l31 -65 -25 -38 c-14 -21 -26 -45 -26 -54 0 -10 -14 -29 -32 -44 l-32 -27
-14 28 c-9 17 -12 43 -9 71 5 45 -5 56 -23 24 -16 -30 -12 -53 19 -122 34 -77
42 -107 30 -114 -4 -3 -4 -17 2 -32 7 -18 6 -30 -3 -40 -9 -11 -9 -16 1 -22 9
-6 8 -11 -4 -21 -18 -15 -20 -34 -2 -24 8 5 8 2 -2 -9 -12 -15 -10 -17 18 -17
35 0 41 -21 16 -54 -13 -17 -15 -17 -34 15 l-21 34 6 -49 c6 -39 4 -48 -7 -44
-20 7 -51 64 -65 122 -12 48 -12 49 -13 15 -1 -23 15 -68 44 -128 38 -78 50
-94 80 -106 53 -23 99 -19 134 11 35 29 39 58 14 86 -13 14 -18 37 -18 83 0
35 -3 66 -6 70 -4 3 -3 18 1 33 5 15 13 44 20 64 14 48 4 87 -27 99 -23 9 -24
10 -8 36 9 16 28 42 43 60 27 31 27 31 79 20 57 -12 83 -1 83 33 0 26 90 121
166 176 36 25 67 44 69 42 2 -2 0 -35 -5 -73 -16 -121 -29 -439 -19 -451 6 -8
7 -14 0 -18 -5 -3 -12 0 -14 6 -3 7 -6 3 -6 -8 -1 -27 18 -43 56 -47 16 -2 41
-12 56 -22 23 -15 40 -17 99 -11 40 4 79 13 87 20 9 8 27 16 41 18 l25 3 1
135 c0 139 17 247 54 356 34 98 32 97 169 96 l121 -1 2 102 2 102 3 -98 4 -98
72 6 c85 7 111 9 195 20 l62 8 2 36 1 36 4 -32 c3 -20 10 -33 19 -33 8 0 14 4
14 8 0 5 14 7 30 6 30 -2 30 -2 32 54 l1 57 6 -48 c8 -61 24 -65 32 -7 l6 45
1 -44 c2 -35 5 -42 18 -37 9 3 20 6 26 6 7 0 9 41 6 128 -3 73 -1 110 3 87 4
-22 8 -77 8 -122 1 -46 5 -83 10 -83 17 0 20 45 11 170 -14 189 -48 285 -201
561 -33 58 -59 110 -59 116 0 5 12 15 26 21 14 7 22 17 18 23 -9 14 67 91 84
84 7 -2 11 -1 8 4 -7 10 32 47 40 38 4 -3 25 9 47 28 22 19 45 35 51 35 6 0 4
5 -4 10 -13 8 -12 10 5 11 32 3 38 5 68 19 15 7 27 16 27 19 -1 11 -94 105
-133 135 -21 15 -36 30 -33 33 10 11 92 -27 125 -58 45 -41 76 -52 92 -33 6 8
10 15 8 17 -30 17 -64 35 -130 69 -77 39 -97 58 -61 58 26 -1 127 -26 183 -46
52 -19 63 -17 53 10 -8 20 -59 47 -136 72 -96 30 -66 55 41 35 36 -7 74 -12
84 -12 9 0 15 -4 12 -10 -10 -15 22 -10 35 6 10 12 8 16 -15 25 -14 5 -31 10
-36 10 -20 0 -7 30 19 44 42 22 236 222 223 230 -6 4 -88 16 -183 26 -95 11
-191 22 -213 26 -37 5 -43 2 -80 -38 -22 -23 -29 -34 -15 -23 l25 20 -19 -22
c-10 -13 -23 -20 -28 -17 -10 6 -258 -239 -382 -378 -42 -49 -81 -88 -86 -88
-11 0 -25 50 -41 145 l-12 72 32 46 32 47 -22 83 c-13 45 -40 127 -61 182 -22
55 -46 129 -55 165 -8 36 -21 85 -29 109 -9 30 -11 48 -4 56 6 7 13 33 16 58
6 45 6 45 -37 72 -24 15 -55 34 -68 42 l-23 15 31 19 c17 10 45 40 62 66 30
49 69 158 69 196 0 18 -2 18 -25 -8 -23 -23 -31 -26 -63 -20 -20 3 -50 15 -67
26 -16 10 -46 26 -65 35 l-35 17 29 8 c34 9 50 30 33 41 -19 12 -39 9 -31 -4
5 -8 -8 -10 -51 -5 -55 6 -57 5 -35 -10 22 -16 23 -17 4 -24 -10 -4 -58 -8
-105 -8 -71 -1 -93 3 -129 22 -60 32 -90 89 -90 173 0 69 5 74 71 74 37 0 39
-1 39 -32 0 -18 5 -40 10 -48 7 -10 8 -1 5 30 -3 25 -2 59 3 75 7 25 14 30 43
33 l34 2 -26 -15 c-39 -21 -49 -83 -19 -107 49 -40 110 -32 132 16 15 33 -10
72 -55 85 -28 8 -29 9 -7 10 35 1 140 -25 152 -37 14 -14 -7 -99 -31 -131 -19
-25 -19 -25 -102 -12 -46 7 -93 17 -104 22 -19 10 -19 9 -2 -5 21 -17 141 -39
184 -34 22 2 33 13 53 50 18 36 31 48 48 48 18 0 22 -5 22 -34 0 -62 18 -95
58 -106 21 -5 46 -10 57 -9 23 1 16 4 -42 19 l-43 11 0 69 c0 100 19 114 116
85 57 -17 75 -19 54 -5 -8 5 -10 10 -4 10 19 0 22 36 5 58 -13 18 -28 22 -81
24 -64 3 -65 3 -68 -24 -3 -23 1 -27 25 -30 18 -2 6 -7 -34 -12 -55 -7 -67 -5
-97 13 -37 23 -163 51 -229 51 -23 0 -64 -7 -91 -15 -95 -29 -97 -18 -21 111
64 107 83 118 200 118 53 0 85 -7 132 -27 51 -22 78 -27 143 -27 82 0 132 -15
143 -43 12 -32 18 -145 9 -183 -9 -39 -8 -43 14 -53 13 -6 24 -16 24 -23 0 -9
-3 -9 -12 0 -24 24 -35 11 -46 -55 -6 -37 -9 -69 -6 -72 3 -3 15 1 27 8 20 13
21 13 9 -2 -8 -9 -23 -17 -35 -19 -16 -2 -18 -5 -7 -9 8 -4 25 -3 37 2 31 11
59 107 44 151 -12 34 -15 186 -5 237 4 17 11 28 17 24 6 -4 8 2 5 15 -4 12 -2
20 3 16 13 -8 11 7 -6 36 -8 14 -14 37 -15 51 0 25 10 31 140 85 77 33 140 62
140 65 0 5 -135 68 -487 227 -56 26 -99 50 -97 54 10 16 -32 6 -122 -26z m91
-1453 c0 -66 -3 -77 -20 -84 -11 -4 -15 -8 -10 -9 6 0 29 -5 53 -9 39 -8 42
-7 29 8 -8 9 -17 41 -20 71 -2 30 -8 64 -12 75 -4 12 9 3 34 -22 38 -40 41
-46 41 -100 0 -47 5 -63 25 -87 14 -16 25 -30 25 -32 0 -2 7 -29 16 -61 18
-68 38 -462 23 -477 -6 -6 -13 -6 -21 2 -9 9 -8 12 6 12 9 0 14 5 11 10 -4 6
-11 8 -16 5 -8 -6 -13 17 -12 53 1 6 -5 12 -13 12 -8 0 -14 5 -14 11 0 5 -5 7
-10 4 -6 -4 -7 -11 -3 -18 3 -6 5 -32 4 -58 -2 -42 1 -51 29 -76 l32 -28 -6
-180 c-3 -103 -12 -210 -21 -250 -8 -38 -15 -74 -15 -79 0 -6 -7 -1 -15 10
-12 15 -16 16 -24 5 -6 -9 -18 -11 -37 -7 -55 14 -55 15 -48 190 11 274 -25
755 -66 890 l-19 61 24 -29 c60 -74 165 -311 165 -373 0 -14 6 -23 15 -23 20
0 19 21 -6 110 -38 139 -131 312 -228 428 -41 49 -43 53 -26 66 11 8 16 20 12
30 -9 22 2 20 45 -9 48 -32 58 -32 58 5 0 17 3 30 8 30 4 0 7 -35 7 -77z
m-1160 -630 c-5 -90 -14 -157 -26 -193 -10 -30 -30 -131 -44 -225 -52 -334
-63 -400 -74 -427 -18 -48 -44 -56 -185 -58 l-129 -1 6 78 c10 122 54 365 67
373 7 4 9 14 6 21 -4 8 -1 6 7 -3 29 -36 40 -23 53 65 l6 47 85 0 85 0 34 37
c19 20 36 45 40 55 3 10 9 18 13 18 5 0 14 44 20 98 20 163 33 252 38 252 3 0
1 -62 -2 -137z m333 -198 c63 -19 131 -69 155 -115 16 -32 20 -120 5 -135 -2
-2 -25 7 -52 20 -66 33 -187 59 -250 52 -69 -7 -139 -35 -132 -54 3 -8 1 -11
-4 -8 -15 9 -13 188 3 208 36 47 169 63 275 32z m-408 -15 c0 -5 -4 -10 -10
-10 -5 0 -10 -5 -10 -12 0 -6 -12 -27 -26 -46 l-27 -34 -77 4 c-43 1 -80 5
-83 8 -3 3 -2 20 0 38 5 30 7 32 52 34 l46 1 -40 6 c-39 5 -17 8 148 19 15 1
27 -2 27 -8z m397 -215 c29 -8 64 -26 78 -38 l26 -22 -21 -128 c-11 -70 -17
-134 -13 -141 4 -8 28 -31 53 -51 25 -21 56 -52 69 -71 24 -34 75 -209 65
-225 -8 -14 -42 -11 -68 7 -14 8 -37 44 -52 80 -15 35 -33 64 -40 64 -8 0 -21
-11 -30 -25 -16 -25 -16 -54 -2 -160 2 -15 -4 -21 -22 -23 -13 -2 -29 -11 -36
-20 -20 -27 -41 -6 -70 70 -32 83 -42 78 -20 -10 20 -73 20 -72 0 -72 -9 0
-26 24 -43 60 -15 34 -30 58 -33 55 -3 -3 -3 -26 0 -50 4 -37 2 -45 -12 -45
-22 0 -31 27 -44 135 -11 80 -10 99 8 172 19 82 19 84 1 195 -26 153 -30 246
-11 259 20 14 152 4 217 -16z"/>
<path d="M2393 4723 c-45 -37 -35 -45 87 -69 62 -12 118 -20 122 -18 4 3 8 16
8 30 0 20 -9 29 -46 45 -66 30 -143 35 -171 12z"/>
<path d="M2580 779 c-11 -8 -6 -9 18 -4 40 8 68 -12 77 -56 4 -16 10 -29 15
-29 4 0 10 -7 14 -15 4 -13 2 -13 -14 -5 -10 5 -38 10 -62 11 l-43 1 35 10
c33 9 34 11 15 24 -18 14 -18 14 0 14 25 0 8 16 -27 24 -15 3 -30 2 -33 -4 -3
-5 -12 -10 -18 -10 -8 0 -8 3 2 9 9 6 10 11 2 15 -45 28 -108 5 -143 -52 -28
-46 -64 -68 -83 -52 -8 7 -15 21 -15 31 0 11 -5 19 -11 19 -10 0 -4 -52 8 -72
11 -19 42 -5 83 37 47 48 70 57 70 27 0 -13 12 -22 38 -30 69 -22 129 -56 125
-72 -3 -8 5 -5 16 8 18 21 24 22 58 13 21 -6 51 -11 66 -11 28 0 28 0 -15 33
-24 18 -51 48 -60 66 -35 70 -80 97 -118 70z"/>
<path d="M2283 608 l2 -88 31 0 c17 0 79 -7 139 -15 59 -9 116 -13 125 -10 9
3 23 17 31 31 12 23 11 27 -4 39 -19 13 -136 13 -188 0 -17 -4 -29 -2 -34 5
-5 9 -1 10 14 5 13 -4 21 -2 21 5 0 6 -4 8 -10 5 -5 -3 -10 -1 -10 6 0 8 -7 5
-20 -6 -11 -10 -17 -23 -13 -29 3 -6 0 -5 -8 2 -14 13 -40 16 -38 5 1 -5 0
-12 -1 -18 -1 -5 -10 26 -20 70 l-18 80 1 -87z"/>
<path d="M2706 528 c-7 -18 -16 -41 -19 -50 -8 -22 -27 -22 -172 -4 -173 22
-242 28 -225 18 13 -8 233 -34 390 -46 61 -5 258 8 267 18 10 9 -29 46 -71 68
-44 22 -69 19 -127 -18 -41 -25 -45 -22 -29 20 14 38 1 32 -14 -6z"/>
<path d="M2270 453 c0 -20 18 -25 143 -39 67 -8 156 -18 197 -23 99 -13 292
-14 325 -1 17 7 25 16 23 28 -3 15 -16 17 -123 15 -66 -2 -156 -7 -200 -13
-66 -8 -91 -7 -140 6 -33 8 -93 15 -134 15 -50 -1 -77 3 -83 11 -6 10 -8 10
-8 1z"/>
</g>
</svg>
