<svg width="261" height="260" viewBox="0 0 261 260" fill="none" xmlns="http://www.w3.org/2000/svg">
<g filter="url(#filter0_d_303_17106)">
<rect x="40.8955" y="36" width="180" height="180" rx="32" fill="white"/>
<rect x="41.3955" y="36.5" width="179" height="179" rx="31.5" stroke="#878787"/>
</g>
<g clip-path="url(#clip0_303_17106)">
<path d="M114.335 176C118.755 175.997 122.992 174.24 126.116 171.114C129.24 167.988 130.995 163.749 130.995 159.33V142.67H114.335C112.112 142.616 109.901 143.006 107.831 143.819C105.762 144.632 103.876 145.851 102.285 147.404C100.693 148.957 99.4286 150.813 98.5651 152.862C97.7017 154.911 97.2568 157.112 97.2568 159.335C97.2568 161.559 97.7017 163.76 98.5651 165.809C99.4286 167.858 100.693 169.713 102.285 171.266C103.876 172.819 105.762 174.038 107.831 174.851C109.901 175.664 112.112 176.054 114.335 176Z" fill="#8C8C8C"/>
<path d="M97.665 126C97.6677 121.58 99.4248 117.341 102.55 114.215C105.676 111.09 109.915 109.333 114.335 109.33H130.995V142.67H114.335C109.915 142.667 105.676 140.91 102.55 137.785C99.4248 134.659 97.6677 130.42 97.665 126Z" fill="#818181"/>
<path d="M97.665 92.67C97.6677 88.2497 99.4248 84.0111 102.55 80.8855C105.676 77.7598 109.915 76.0026 114.335 76H130.995V109.33H114.335C109.916 109.33 105.677 107.575 102.551 104.451C99.4252 101.327 97.6677 97.0894 97.665 92.67Z" fill="#7A7A7A"/>
<path d="M130.995 76H147.665C149.888 75.9455 152.099 76.3363 154.169 77.1493C156.238 77.9624 158.124 79.1812 159.716 80.7341C161.307 82.2869 162.572 84.1425 163.435 86.1915C164.299 88.2405 164.743 90.4415 164.743 92.665C164.743 94.8885 164.299 97.0895 163.435 99.1385C162.572 101.188 161.307 103.043 159.716 104.596C158.124 106.149 156.238 107.368 154.169 108.181C152.099 108.994 149.888 109.384 147.665 109.33H130.995V76Z" fill="#9B9B9B"/>
<path d="M164.335 126C164.335 129.297 163.357 132.52 161.526 135.261C159.694 138.003 157.091 140.139 154.044 141.401C150.998 142.663 147.647 142.993 144.413 142.35C141.179 141.706 138.209 140.119 135.878 137.787C133.546 135.456 131.959 132.486 131.315 129.252C130.672 126.018 131.002 122.667 132.264 119.621C133.526 116.575 135.662 113.971 138.404 112.139C141.145 110.308 144.368 109.33 147.665 109.33C152.085 109.333 156.324 111.09 159.45 114.215C162.575 117.341 164.332 121.58 164.335 126Z" fill="#939393"/>
</g>
<defs>
<filter id="filter0_d_303_17106" x="0.895508" y="0" width="260" height="260" filterUnits="userSpaceOnUse" color-interpolation-filters="sRGB">
<feFlood flood-opacity="0" result="BackgroundImageFix"/>
<feColorMatrix in="SourceAlpha" type="matrix" values="0 0 0 0 0 0 0 0 0 0 0 0 0 0 0 0 0 0 127 0" result="hardAlpha"/>
<feOffset dy="4"/>
<feGaussianBlur stdDeviation="20"/>
<feComposite in2="hardAlpha" operator="out"/>
<feColorMatrix type="matrix" values="0 0 0 0 0.0367917 0 0 0 0 0.0348958 0 0 0 0 0.0484375 0 0 0 0.1 0"/>
<feBlend mode="normal" in2="BackgroundImageFix" result="effect1_dropShadow_303_17106"/>
<feBlend mode="normal" in="SourceGraphic" in2="effect1_dropShadow_303_17106" result="shape"/>
</filter>
<clipPath id="clip0_303_17106">
<rect width="66.67" height="100" fill="white" transform="translate(97.665 76)"/>
</clipPath>
</defs>
</svg>
