<svg width="261" height="261" viewBox="0 0 261 261" fill="none" xmlns="http://www.w3.org/2000/svg">
<g filter="url(#filter0_d_301_8802)">
<rect x="40.8955" y="36.4058" width="180" height="180" rx="32" fill="#1D1F23"/>
<rect x="41.3955" y="36.9058" width="179" height="179" rx="31.5" stroke="black"/>
</g>
<path d="M142.306 112.12L132.305 121.431L123.022 102.699L127.818 91.9275C129.03 89.779 131.012 89.7506 132.224 91.9275L142.306 112.12Z" fill="#FFA000"/>
<path d="M132.309 121.427L94.9006 156.221L123.026 102.699L132.309 121.427Z" fill="#F57F17"/>
<path d="M153.272 97.8785C155.064 96.1719 156.908 96.7475 157.374 99.1717L167.099 155.751L134.843 175.116C133.712 175.749 130.712 175.996 130.712 175.996C130.712 175.996 127.984 175.664 126.938 175.088L94.9006 156.221L153.272 97.8785Z" fill="#FFCA28"/>
<path d="M123.026 102.699L94.9006 156.221L107.435 77.9904C107.905 75.5662 109.28 75.319 110.52 77.4675L123.026 102.699Z" fill="#FFA000"/>
<defs>
<filter id="filter0_d_301_8802" x="0.895508" y="0.405762" width="260" height="260" filterUnits="userSpaceOnUse" color-interpolation-filters="sRGB">
<feFlood flood-opacity="0" result="BackgroundImageFix"/>
<feColorMatrix in="SourceAlpha" type="matrix" values="0 0 0 0 0 0 0 0 0 0 0 0 0 0 0 0 0 0 127 0" result="hardAlpha"/>
<feOffset dy="4"/>
<feGaussianBlur stdDeviation="20"/>
<feComposite in2="hardAlpha" operator="out"/>
<feColorMatrix type="matrix" values="0 0 0 0 0.0367917 0 0 0 0 0.0348958 0 0 0 0 0.0484375 0 0 0 0.1 0"/>
<feBlend mode="normal" in2="BackgroundImageFix" result="effect1_dropShadow_301_8802"/>
<feBlend mode="normal" in="SourceGraphic" in2="effect1_dropShadow_301_8802" result="shape"/>
</filter>
</defs>
</svg>
