<svg width="261" height="261" viewBox="0 0 261 261" fill="none" xmlns="http://www.w3.org/2000/svg">
<g filter="url(#filter0_d_303_17122)">
<rect x="40.4478" y="36.4058" width="180" height="180" rx="32" fill="white"/>
<rect x="40.9478" y="36.9058" width="179" height="179" rx="31.5" stroke="#878787"/>
</g>
<g clip-path="url(#clip0_303_17122)">
<path d="M130 77.235C118.119 77.224 106.623 81.444 97.5704 89.1388C88.5181 96.8336 82.5017 107.5 80.599 119.228C78.6964 130.955 81.0319 142.977 87.1872 153.139C93.3424 163.301 102.915 170.939 114.19 174.685C116.69 175.145 117.61 173.595 117.61 172.275C117.61 170.955 117.61 167.145 117.54 162.965C103.63 165.965 100.7 157.065 100.7 157.065C98.42 151.285 95.14 149.755 95.14 149.755C90.61 146.645 95.49 146.755 95.49 146.755C100.49 147.105 103.15 151.905 103.15 151.905C107.61 159.545 114.85 157.335 117.7 156.065C117.925 153.526 119.054 151.153 120.88 149.375C109.77 148.065 98.1 143.785 98.1 124.625C98.0365 119.666 99.8802 114.873 103.25 111.235C102.73 109.975 101.02 104.885 103.73 98.005C103.73 98.005 107.93 96.655 117.49 103.125C125.674 100.892 134.306 100.892 142.49 103.125C152.03 96.655 156.22 98.005 156.22 98.005C158.94 104.885 157.22 110.005 156.71 111.235C160.099 114.864 161.958 119.66 161.9 124.625C161.9 143.825 150.2 148.055 139.07 149.295C140.86 150.845 142.46 153.885 142.46 158.555C142.46 165.245 142.4 170.625 142.4 172.275C142.4 173.605 143.3 175.165 145.84 174.675C157.11 170.923 166.676 163.281 172.825 153.119C178.974 142.956 181.304 130.936 179.398 119.212C177.492 107.488 171.475 96.8253 162.424 89.1337C153.372 81.4421 141.878 77.224 130 77.235Z" fill="#161616"/>
<path d="M98.73 148.465C98.6323 148.594 98.4892 148.682 98.3296 148.709C98.1699 148.737 98.0057 148.703 97.87 148.615C97.51 148.455 97.3 148.115 97.42 147.865C97.54 147.615 97.92 147.535 98.28 147.705C98.64 147.875 98.85 148.215 98.73 148.465ZM101.19 150.655C100.95 150.875 100.48 150.775 100.19 150.425C100.05 150.303 99.9589 150.135 99.9332 149.951C99.9075 149.767 99.949 149.581 100.05 149.425C100.29 149.205 100.75 149.305 101.05 149.655C101.35 150.005 101.45 150.475 101.2 150.655H101.19ZM102.87 153.465C102.57 153.675 102.07 153.465 101.76 153.035C101.45 152.605 101.45 152.035 101.76 151.845C102.07 151.655 102.57 151.845 102.88 152.265C103.19 152.685 103.19 153.265 102.88 153.465H102.87ZM105.73 156.715C105.519 156.82 105.282 156.857 105.049 156.823C104.817 156.788 104.6 156.683 104.429 156.522C104.258 156.361 104.141 156.151 104.093 155.921C104.044 155.691 104.068 155.451 104.16 155.235C104.362 155.107 104.604 155.056 104.84 155.091C105.077 155.126 105.293 155.244 105.45 155.425C105.89 155.835 106.02 156.425 105.73 156.705V156.715ZM109.41 157.815C109.29 158.205 108.73 158.385 108.17 158.215C107.61 158.045 107.23 157.585 107.34 157.215C107.45 156.845 108.03 156.635 108.6 156.805C109.17 156.975 109.53 157.435 109.41 157.805V157.815ZM113.61 158.275C113.61 158.695 113.15 159.035 112.55 159.045C111.95 159.055 111.47 158.725 111.46 158.315C111.45 157.905 111.93 157.555 112.53 157.545C113.13 157.535 113.61 157.865 113.61 158.275ZM117.73 158.125C117.81 158.525 117.39 158.935 116.8 159.045C116.21 159.155 115.69 158.905 115.61 158.505C115.53 158.105 115.96 157.685 116.54 157.575C117.12 157.465 117.66 157.715 117.73 158.125Z" fill="#161616"/>
</g>
<defs>
<filter id="filter0_d_303_17122" x="0.447754" y="0.405762" width="260" height="260" filterUnits="userSpaceOnUse" color-interpolation-filters="sRGB">
<feFlood flood-opacity="0" result="BackgroundImageFix"/>
<feColorMatrix in="SourceAlpha" type="matrix" values="0 0 0 0 0 0 0 0 0 0 0 0 0 0 0 0 0 0 127 0" result="hardAlpha"/>
<feOffset dy="4"/>
<feGaussianBlur stdDeviation="20"/>
<feComposite in2="hardAlpha" operator="out"/>
<feColorMatrix type="matrix" values="0 0 0 0 0.0367917 0 0 0 0 0.0348958 0 0 0 0 0.0484375 0 0 0 0.1 0"/>
<feBlend mode="normal" in2="BackgroundImageFix" result="effect1_dropShadow_303_17122"/>
<feBlend mode="normal" in="SourceGraphic" in2="effect1_dropShadow_303_17122" result="shape"/>
</filter>
<clipPath id="clip0_303_17122">
<rect width="100" height="97.53" fill="white" transform="translate(80 77.235)"/>
</clipPath>
</defs>
</svg>
