<svg width="261" height="261" viewBox="0 0 261 261" fill="none" xmlns="http://www.w3.org/2000/svg">
<g filter="url(#filter0_d_301_8923)">
<rect x="40.3433" y="36.7029" width="180" height="180" rx="32" fill="#1D1F23"/>
<rect x="40.8433" y="37.2029" width="179" height="179" rx="31.5" stroke="black"/>
</g>
<path d="M130 173.059L148.413 116.39H111.587L130 173.059H130Z" fill="#E24329"/>
<path d="M130 173.058L111.587 116.389H85.782L130 173.058Z" fill="#FC6D26"/>
<path d="M85.7819 116.389L80.1866 133.611C79.9378 134.377 79.9378 135.201 80.1865 135.967C80.4352 136.733 80.9199 137.4 81.5712 137.873L130 173.059L85.7815 116.39L85.7819 116.389Z" fill="#FCA326"/>
<path d="M85.782 116.39H111.587L100.497 82.2584C99.9267 80.5021 97.4421 80.5025 96.8718 82.2584L85.782 116.39Z" fill="#E24329"/>
<path d="M130 173.058L148.413 116.389H174.218L130 173.058H130Z" fill="#FC6D26"/>
<path d="M174.218 116.389L179.813 133.611C180.062 134.377 180.062 135.201 179.813 135.967C179.565 136.733 179.08 137.4 178.428 137.873L130 173.059L174.218 116.39V116.389Z" fill="#FCA326"/>
<path d="M174.218 116.39H148.413L159.503 82.2584C160.074 80.5021 162.558 80.5025 163.128 82.2584L174.218 116.39Z" fill="#E24329"/>
<defs>
<filter id="filter0_d_301_8923" x="0.343262" y="0.702881" width="260" height="260" filterUnits="userSpaceOnUse" color-interpolation-filters="sRGB">
<feFlood flood-opacity="0" result="BackgroundImageFix"/>
<feColorMatrix in="SourceAlpha" type="matrix" values="0 0 0 0 0 0 0 0 0 0 0 0 0 0 0 0 0 0 127 0" result="hardAlpha"/>
<feOffset dy="4"/>
<feGaussianBlur stdDeviation="20"/>
<feComposite in2="hardAlpha" operator="out"/>
<feColorMatrix type="matrix" values="0 0 0 0 0.0367917 0 0 0 0 0.0348958 0 0 0 0 0.0484375 0 0 0 0.1 0"/>
<feBlend mode="normal" in2="BackgroundImageFix" result="effect1_dropShadow_301_8923"/>
<feBlend mode="normal" in="SourceGraphic" in2="effect1_dropShadow_301_8923" result="shape"/>
</filter>
</defs>
</svg>
