<svg width="261" height="261" viewBox="0 0 261 261" fill="none" xmlns="http://www.w3.org/2000/svg">
<g filter="url(#filter0_d_303_17203)">
<rect x="40.1719" y="36.4058" width="180" height="180" rx="32" fill="white"/>
<rect x="40.6719" y="36.9058" width="179" height="179" rx="31.5" stroke="#878787"/>
</g>
<g clip-path="url(#clip0_303_17203)">
<path d="M180 76H80V176H180V76Z" fill="#D1D1D1"/>
<path d="M147.17 154.13C149.17 157.41 151.81 159.83 156.44 159.83C160.34 159.83 162.83 157.89 162.83 155.2C162.83 152 160.27 150.83 156 149L153.65 148C146.87 145.11 142.37 141.49 142.37 133.84C142.37 126.84 147.74 121.43 156.13 121.43C162.13 121.43 166.4 123.51 169.5 128.95L162.18 133.65C160.57 130.76 158.83 129.65 156.18 129.65C153.53 129.65 151.68 131.4 151.68 133.65C151.68 136.47 153.43 137.65 157.46 139.36L159.81 140.36C167.81 143.79 172.3 147.28 172.3 155.13C172.3 163.59 165.66 168.22 156.73 168.22C148 168.22 142.37 164.06 139.61 158.61L147.17 154.13ZM114 154.94C115.48 157.56 116.82 159.77 120.05 159.77C123.13 159.77 125.05 158.57 125.05 153.87V121.92H134.45V154C134.45 163.73 128.74 168.15 120.45 168.15C112.92 168.15 108.57 164.26 106.35 159.57L114 154.94Z" fill="black"/>
</g>
<defs>
<filter id="filter0_d_303_17203" x="0.171875" y="0.405762" width="260" height="260" filterUnits="userSpaceOnUse" color-interpolation-filters="sRGB">
<feFlood flood-opacity="0" result="BackgroundImageFix"/>
<feColorMatrix in="SourceAlpha" type="matrix" values="0 0 0 0 0 0 0 0 0 0 0 0 0 0 0 0 0 0 127 0" result="hardAlpha"/>
<feOffset dy="4"/>
<feGaussianBlur stdDeviation="20"/>
<feComposite in2="hardAlpha" operator="out"/>
<feColorMatrix type="matrix" values="0 0 0 0 0.0367917 0 0 0 0 0.0348958 0 0 0 0 0.0484375 0 0 0 0.1 0"/>
<feBlend mode="normal" in2="BackgroundImageFix" result="effect1_dropShadow_303_17203"/>
<feBlend mode="normal" in="SourceGraphic" in2="effect1_dropShadow_303_17203" result="shape"/>
</filter>
<clipPath id="clip0_303_17203">
<rect width="100" height="100" fill="white" transform="translate(80 76)"/>
</clipPath>
</defs>
</svg>
