<svg xmlns="http://www.w3.org/2000/svg" width="423" height="427" viewBox="0 0 423 427" version="1.1"><path d="M 328.440 117.098 C 327.574 118.498, 329.756 118.999, 330.871 117.656 C 331.699 116.657, 331.594 116.333, 330.440 116.333 C 329.600 116.333, 328.699 116.677, 328.440 117.098 M 320.924 125.750 L 318.500 128.500 321.250 126.076 C 322.762 124.742, 324 123.505, 324 123.326 C 324 122.541, 323.190 123.180, 320.924 125.750 M 312.437 133.250 L 309.500 136.500 312.750 133.563 C 315.779 130.825, 316.460 130, 315.687 130 C 315.515 130, 314.052 131.463, 312.437 133.250 M 303.437 141.250 L 300.500 144.500 303.750 141.563 C 305.538 139.948, 307 138.485, 307 138.313 C 307 137.540, 306.175 138.221, 303.437 141.250 M 157.082 146.071 C 157.037 146.936, 157.916 149.411, 159.036 151.571 C 160.227 153.870, 160.798 154.463, 160.412 153 C 159.323 148.870, 157.169 144.389, 157.082 146.071 M 142.635 160.624 C 141.139 164.267, 140.097 167.431, 140.321 167.654 C 140.735 168.068, 144.215 160.335, 145.453 156.250 C 146.801 151.803, 145.302 154.128, 142.635 160.624 M 284.924 157.750 L 282.500 160.500 285.250 158.076 C 286.762 156.742, 288 155.505, 288 155.326 C 288 154.541, 287.190 155.180, 284.924 157.750 M 161 156.211 C 161 157.290, 164.038 164, 164.527 164 C 164.802 164, 164.331 162.336, 163.481 160.301 C 161.983 156.714, 161 155.095, 161 156.211 M 133.840 182.685 C 133.432 184.127, 133.722 185.063, 134.692 185.435 C 137.328 186.447, 165.161 186.069, 164.519 185.031 C 164.149 184.431, 158.445 184.299, 149.550 184.683 C 135.179 185.304, 135.179 185.304, 134.819 182.902 C 134.465 180.541, 134.448 180.538, 133.840 182.685 M 275.250 188.689 C 276.212 188.941, 277.788 188.941, 278.750 188.689 C 279.712 188.438, 278.925 188.232, 277 188.232 C 275.075 188.232, 274.288 188.438, 275.250 188.689 M 264.890 191.250 C 263.765 193.392, 263.800 193.422, 265.604 191.880 C 266.647 190.990, 268.175 190.013, 269 189.709 C 269.996 189.343, 269.756 189.131, 268.285 189.079 C 266.951 189.031, 265.601 189.895, 264.890 191.250 M 237.437 200.250 L 234.500 203.500 237.750 200.563 C 240.779 197.825, 241.460 197, 240.687 197 C 240.515 197, 239.052 198.463, 237.437 200.250 M 225.500 210.678 C 222.200 213.750, 220.850 215.343, 222.500 214.219 C 225.345 212.280, 232.895 204.948, 231.946 205.046 C 231.701 205.071, 228.800 207.605, 225.500 210.678 M 210.958 223.708 L 206.500 228.416 211.500 224.037 C 214.250 221.629, 216.688 219.511, 216.917 219.330 C 217.146 219.148, 216.902 219, 216.375 219 C 215.848 219, 213.410 221.119, 210.958 223.708 M 119.654 221.750 C 119.399 222.162, 134.107 222.375, 152.338 222.223 C 183.104 221.966, 185.587 222.074, 186.878 223.723 C 188.203 225.416, 188.239 225.413, 187.635 223.668 C 187.286 222.661, 187 221.648, 187 221.418 C 187 220.656, 120.127 220.985, 119.654 221.750 M 211.746 238.021 C 205.945 242.983, 200.923 247.759, 200.587 248.635 C 200.030 250.086, 207.042 244.218, 218.923 233.290 C 227.074 225.792, 222.586 228.751, 211.746 238.021 M 194.453 254.250 L 190.500 258.500 194.750 254.547 C 197.088 252.373, 199 250.460, 199 250.297 C 199 249.540, 198.129 250.298, 194.453 254.250 M 190.507 270.989 C 190.161 271.549, 190.549 271.727, 191.404 271.398 C 192.653 270.919, 192.971 272.167, 193.255 278.660 L 193.598 286.500 193.799 278.250 C 193.960 271.640, 193.713 270, 192.559 270 C 191.766 270, 190.843 270.445, 190.507 270.989 M 241.336 277 C 241.336 281.125, 241.513 282.813, 241.728 280.750 C 241.944 278.688, 241.944 275.313, 241.728 273.250 C 241.513 271.188, 241.336 272.875, 241.336 277 M 172.437 274.250 L 169.500 277.500 172.750 274.563 C 175.779 271.825, 176.460 271, 175.687 271 C 175.515 271, 174.052 272.462, 172.437 274.250 M 163.924 281.750 L 161.500 284.500 164.250 282.076 C 166.820 279.810, 167.459 279, 166.674 279 C 166.495 279, 165.258 280.238, 163.924 281.750 M 154.924 289.750 L 152.500 292.500 155.250 290.076 C 157.820 287.810, 158.459 287, 157.674 287 C 157.495 287, 156.258 288.238, 154.924 289.750 M 194.195 291.500 C 194.215 293.150, 194.439 293.704, 194.693 292.731 C 194.947 291.758, 194.930 290.408, 194.656 289.731 C 194.382 289.054, 194.175 289.850, 194.195 291.500 M 145.437 298.250 L 142.500 301.500 145.750 298.563 C 147.537 296.948, 149 295.485, 149 295.313 C 149 294.540, 148.175 295.221, 145.437 298.250 M 136.924 305.750 L 134.500 308.500 137.250 306.076 C 139.820 303.810, 140.459 303, 139.674 303 C 139.495 303, 138.258 304.238, 136.924 305.750 M 316 308.500 C 313.571 310.975, 311.809 313, 312.084 313 C 312.359 313, 314.571 310.975, 317 308.500 C 319.429 306.025, 321.191 304, 320.916 304 C 320.641 304, 318.429 306.025, 316 308.500 M 255 312.500 C 256.292 313.875, 257.574 315, 257.849 315 C 258.124 315, 257.292 313.875, 256 312.500 C 254.708 311.125, 253.426 310, 253.151 310 C 252.876 310, 253.708 311.125, 255 312.500 M 107.500 332 C 106.505 333.100, 106.194 334, 106.810 334 C 107.426 334, 108.411 333.100, 109 332 C 109.589 330.900, 109.899 330, 109.690 330 C 109.481 330, 108.495 330.900, 107.500 332 M 342.453 343.250 L 338.500 347.500 342.750 343.547 C 346.702 339.871, 347.460 339, 346.703 339 C 346.540 339, 344.627 340.913, 342.453 343.250" stroke="none" fill="#dcdadb" fill-rule="evenodd"/><path d="M 128.256 87.250 C 126.549 91.237, 123.076 99.450, 120.540 105.500 C 118.003 111.550, 114.841 118.975, 113.512 122 C 112.183 125.025, 109.019 132.450, 106.481 138.500 C 96.587 162.083, 93.758 168.737, 90.932 175.080 C 89.319 178.699, 88 181.979, 88 182.369 C 88 182.759, 86.375 186.773, 84.389 191.289 C 75.956 210.468, 59 250.661, 59 251.473 C 59 251.782, 69.847 251.915, 83.104 251.768 L 107.207 251.500 112.919 237.452 C 116.061 229.726, 118.966 222.864, 119.375 222.202 C 119.930 221.305, 128.575 221, 153.492 221 C 186.865 221, 186.865 221, 187.536 223.250 C 188.123 225.218, 193 236.952, 193.594 237.824 C 194.091 238.554, 209.434 225.312, 234.500 202.517 C 239.450 198.016, 245.299 192.795, 247.499 190.916 C 253.037 186.184, 266.395 174.347, 287.463 155.500 C 297.301 146.700, 311.683 133.932, 319.425 127.128 C 339.740 109.270, 339.736 108.885, 319.403 124.500 C 312.957 129.450, 302.407 137.550, 295.960 142.500 C 284.827 151.047, 275.988 157.839, 253.707 174.970 C 248.320 179.112, 242.690 183.400, 241.194 184.500 C 239.698 185.600, 235.632 188.692, 232.157 191.370 C 228.611 194.104, 225.466 195.858, 224.988 195.370 C 224.519 194.892, 222.562 190.675, 220.638 186 C 218.715 181.325, 215.032 172.550, 212.455 166.500 C 209.878 160.450, 206.743 153.025, 205.489 150 C 204.234 146.975, 201.089 139.550, 198.501 133.500 C 195.912 127.450, 192.306 118.900, 190.488 114.500 C 187.177 106.487, 182.327 95.090, 178.041 85.250 L 175.754 80 153.558 80 L 131.361 80 128.256 87.250 M 149.157 144.250 C 146.381 151.805, 144.065 157.652, 135.993 177.487 C 133.922 182.577, 133.469 184.681, 134.325 185.237 C 135.641 186.091, 169.438 186.153, 171.647 185.305 C 173.253 184.689, 172.846 182.591, 169.939 176.500 C 168.890 174.300, 165.975 167.100, 163.462 160.500 C 156.778 142.946, 153.796 136, 152.945 136 C 152.529 136, 150.825 139.713, 149.157 144.250 M 274.247 188.985 C 267.641 189.736, 267.532 189.801, 257.441 198.986 C 254.108 202.018, 249.833 205.880, 247.941 207.567 C 228.700 224.719, 213.747 237.951, 199.500 250.431 C 190.150 258.622, 182.050 265.843, 181.500 266.477 C 180.445 267.694, 152.058 292.972, 130.989 311.457 C 115.878 324.715, 110.974 329.308, 111.437 329.770 C 111.629 329.963, 115.547 327.275, 120.143 323.798 C 124.739 320.321, 129.459 316.807, 130.631 315.988 C 131.803 315.170, 146.055 304.488, 162.301 292.250 C 178.548 280.012, 192.326 270, 192.920 270 C 193.607 270, 194 273.044, 194 278.369 C 194 300.163, 201.263 319.901, 215.317 336.303 C 220.121 341.909, 229.932 350.170, 234.855 352.754 C 236.169 353.444, 239.327 355.106, 241.872 356.448 C 248.208 359.789, 261.737 363.840, 270.899 365.140 C 289.392 367.764, 312.775 362.971, 330 353.027 C 336.662 349.182, 356 330.632, 356 328.088 C 356 327.374, 352.580 324.794, 338.648 315 C 337.475 314.175, 333.291 311.201, 329.350 308.392 L 322.186 303.284 315.620 309.566 C 311.737 313.281, 306.293 317.207, 302.298 319.174 C 295.780 322.383, 295.119 322.500, 283.521 322.500 C 272.241 322.500, 271.130 322.319, 265.500 319.556 C 254.365 314.093, 245.762 302.571, 242.506 288.760 C 237.369 266.973, 247.267 243.617, 265.500 234.500 C 271.167 231.667, 272.167 231.500, 283.500 231.500 C 295.183 231.500, 295.671 231.589, 301.964 234.872 C 305.519 236.727, 311.221 240.927, 314.635 244.205 L 320.842 250.166 328.671 244.054 C 332.977 240.692, 338.690 236.268, 341.368 234.221 C 349.987 227.632, 354.500 223.760, 354.500 222.952 C 354.500 221.073, 342.501 208.819, 336.391 204.459 C 329.003 199.188, 317.695 194.064, 307.898 191.549 C 302.382 190.134, 284.459 187.834, 281.500 188.163 C 280.950 188.224, 277.686 188.594, 274.247 188.985" stroke="none" fill="#fbfbfb" fill-rule="evenodd"/></svg>