<svg width="261" height="261" viewBox="0 0 261 261" fill="none" xmlns="http://www.w3.org/2000/svg">
<g filter="url(#filter0_d_303_17189)">
<rect x="40.3433" y="36.4058" width="180" height="180" rx="32" fill="white"/>
<rect x="40.8433" y="36.9058" width="179" height="179" rx="31.5" stroke="#878787"/>
</g>
<g clip-path="url(#clip0_303_17189)">
<path d="M129.69 76.2701L132.35 81.2701C132.925 82.1731 133.595 83.0113 134.35 83.7701C136.594 85.9866 138.685 88.352 140.61 90.8501C145.01 96.7675 148.312 103.426 150.36 110.51C151.674 114.841 152.371 119.335 152.43 123.86C152.636 130.284 151.524 136.683 149.163 142.661C146.801 148.639 143.241 154.071 138.7 158.62C137.179 160.15 135.537 161.554 133.79 162.82C132.87 162.82 132.43 162.11 132.05 161.45C131.356 160.24 130.894 158.91 130.69 157.53C130.319 155.891 130.171 154.209 130.25 152.53V151.76C130.18 151.6 129.36 76.6101 129.69 76.2201V76.2701Z" fill="#797979"/>
<path d="M129.69 76.1101C129.58 75.8901 129.47 76.0501 129.36 76.1601C129.38 77.234 129.054 78.2859 128.43 79.1601C127.731 80.052 126.929 80.8577 126.04 81.5601C121.255 85.7735 117.286 90.8309 114.33 96.4801C110.356 104.038 108.041 112.356 107.54 120.88C107.27 123.98 108.54 134.88 109.54 138.09C112.248 146.28 116.944 153.671 123.21 159.6C124.744 161.07 126.36 162.452 128.05 163.74C128.54 163.74 128.59 163.31 128.71 162.98C128.924 162.286 129.088 161.578 129.2 160.86L130.29 152.69L129.69 76.1101Z" fill="#8E8E8E"/>
<path d="M132.35 166.14C132.528 164.935 132.998 163.791 133.72 162.81C133.076 162.51 132.541 162.018 132.19 161.4C131.86 160.829 131.588 160.226 131.38 159.6C130.732 157.318 130.349 154.969 130.24 152.6V151.16C129.96 151.38 129.91 153.23 129.91 153.5C129.743 155.973 129.408 158.432 128.91 160.86C128.832 161.857 128.531 162.824 128.03 163.69C128.009 163.816 128.009 163.944 128.03 164.07C128.939 166.926 129.447 169.894 129.54 172.89V174C129.54 175.3 129.49 175 130.54 175.47C131.02 175.574 131.48 175.756 131.9 176.01C132.23 176.01 132.28 175.74 132.28 175.52L132.12 173.72V168.72C132.112 167.862 132.185 167.004 132.34 166.16L132.35 166.14Z" fill="#C0C0C0"/>
</g>
<defs>
<filter id="filter0_d_303_17189" x="0.343262" y="0.405762" width="260" height="260" filterUnits="userSpaceOnUse" color-interpolation-filters="sRGB">
<feFlood flood-opacity="0" result="BackgroundImageFix"/>
<feColorMatrix in="SourceAlpha" type="matrix" values="0 0 0 0 0 0 0 0 0 0 0 0 0 0 0 0 0 0 127 0" result="hardAlpha"/>
<feOffset dy="4"/>
<feGaussianBlur stdDeviation="20"/>
<feComposite in2="hardAlpha" operator="out"/>
<feColorMatrix type="matrix" values="0 0 0 0 0.0367917 0 0 0 0 0.0348958 0 0 0 0 0.0484375 0 0 0 0.1 0"/>
<feBlend mode="normal" in2="BackgroundImageFix" result="effect1_dropShadow_303_17189"/>
<feBlend mode="normal" in="SourceGraphic" in2="effect1_dropShadow_303_17189" result="shape"/>
</filter>
<clipPath id="clip0_303_17189">
<rect width="44.92" height="100" fill="white" transform="translate(107.54 76)"/>
</clipPath>
</defs>
</svg>
