<svg width="261" height="260" viewBox="0 0 261 260" fill="none" xmlns="http://www.w3.org/2000/svg">
<g filter="url(#filter0_d_303_17113)">
<rect x="40.1719" y="36" width="180" height="180" rx="32" fill="white"/>
<rect x="40.6719" y="36.5" width="179" height="179" rx="31.5" stroke="#878787"/>
</g>
<g clip-path="url(#clip0_303_17113)">
<path d="M139.8 140.72L115.28 135.59C115.17 135.79 115.06 135.98 114.93 136.17L137.26 168.74L138.61 167.39L142.41 143.77C141.764 143.501 141.192 143.083 140.74 142.55C140.292 142.019 139.97 141.394 139.8 140.72ZM130.85 108.66C130.385 109.38 129.746 109.971 128.993 110.38C128.24 110.788 127.397 111.002 126.54 111C126.269 110.997 125.998 110.973 125.73 110.93L114.55 128.43L144.43 115.57C144.43 115.45 144.43 115.34 144.43 115.21C144.436 114.965 144.463 114.721 144.51 114.48L130.85 108.66ZM131.67 105.47L146.15 111.66C146.61 111.297 147.136 111.029 147.7 110.87L150.08 96.08L141 87L130.81 103C131.307 103.742 131.604 104.6 131.67 105.49V105.47ZM162 108L152.92 98.92L150.92 111.19C151.422 111.438 151.873 111.777 152.25 112.19L162 108ZM140.24 137.49C140.59 136.84 141.099 136.29 141.72 135.89C142.345 135.497 143.055 135.26 143.79 135.2L146.4 119C146.195 118.867 146.004 118.712 145.83 118.54L115.77 131.44C115.85 131.769 115.903 132.103 115.93 132.44L140.24 137.52V137.49ZM164.48 110.49L154 115L179.91 126.09L180 126L164.48 110.49ZM145.69 143.82L142.53 163.46L160.88 145.12L147.67 142.36C147.156 143.027 146.462 143.533 145.67 143.82H145.69ZM110 138.77C109.353 138.772 108.711 138.664 108.1 138.45L102.05 148L99.69 145.65L105.46 136.65C105.32 136.47 105.19 136.28 105.07 136.09L94.61 140.59L92.13 138.12L103.58 133.19L82.88 128.83L80.05 126L80.95 125.1L104.81 130.1C105.077 129.583 105.413 129.105 105.81 128.68L94.27 111.78L96.61 109.44L108.71 127.09C109.133 126.993 109.566 126.943 110 126.94C110.499 126.942 110.996 127.006 111.48 127.13L122.84 109.42C121.918 108.46 121.403 107.181 121.4 105.85C121.4 105.456 121.447 105.063 121.54 104.68L107.42 98.68L109.89 96.2L123.28 101.92C123.953 101.352 124.763 100.969 125.629 100.808C126.494 100.647 127.387 100.713 128.22 101L138.66 84.66L130 76L80 126L130 176L134.92 171.08L112.43 138.26C111.678 138.597 110.864 138.771 110.04 138.77H110ZM149.54 119.67L146.88 136.17C147.346 136.541 147.73 137.004 148.01 137.53C148.292 138.053 148.465 138.628 148.52 139.22L163.59 142.37L177.39 128.57L152.52 117.93C151.806 118.873 150.75 119.498 149.58 119.67H149.54Z" fill="#959595"/>
</g>
<defs>
<filter id="filter0_d_303_17113" x="0.171875" y="0" width="260" height="260" filterUnits="userSpaceOnUse" color-interpolation-filters="sRGB">
<feFlood flood-opacity="0" result="BackgroundImageFix"/>
<feColorMatrix in="SourceAlpha" type="matrix" values="0 0 0 0 0 0 0 0 0 0 0 0 0 0 0 0 0 0 127 0" result="hardAlpha"/>
<feOffset dy="4"/>
<feGaussianBlur stdDeviation="20"/>
<feComposite in2="hardAlpha" operator="out"/>
<feColorMatrix type="matrix" values="0 0 0 0 0.0367917 0 0 0 0 0.0348958 0 0 0 0 0.0484375 0 0 0 0.1 0"/>
<feBlend mode="normal" in2="BackgroundImageFix" result="effect1_dropShadow_303_17113"/>
<feBlend mode="normal" in="SourceGraphic" in2="effect1_dropShadow_303_17113" result="shape"/>
</filter>
<clipPath id="clip0_303_17113">
<rect width="100" height="100" fill="white" transform="translate(80 76)"/>
</clipPath>
</defs>
</svg>
