<svg width="261" height="261" viewBox="0 0 261 261" fill="none" xmlns="http://www.w3.org/2000/svg">
<g filter="url(#filter0_d_303_17118)">
<rect x="40.4478" y="36.7029" width="180" height="180" rx="32" fill="white"/>
<rect x="40.9478" y="37.2029" width="179" height="179" rx="31.5" stroke="#878787"/>
</g>
<mask id="mask0_303_17118" style="mask-type:luminance" maskUnits="userSpaceOnUse" x="80" y="116" width="100" height="22">
<path d="M180 116.92H80V137.22H180V116.92Z" fill="white"/>
</mask>
<g mask="url(#mask0_303_17118)">
<path d="M146.48 116.92H163.9V120.14H157V137.06H153.53V120.14H146.53L146.48 116.92Z" fill="black"/>
<path d="M117.83 116.92V120.14H103.83V125.32H115.1V128.53H103.87V133.84H117.87V137.06H100.41V120.14V116.92H117.83Z" fill="black"/>
<path d="M126.53 116.92H122L138.2 137.07H142.74L134.64 127.01L142.72 116.92H138.2L132.37 124.2L126.53 116.92Z" fill="black"/>
<path d="M131.17 131.31L128.9 128.5L122 137.08H126.54L131.17 131.31Z" fill="black"/>
<path fill-rule="evenodd" clip-rule="evenodd" d="M100.53 137.06L84.32 116.92H80V137.05H83.45V121.22L96.19 137.06H100.53Z" fill="black"/>
<path d="M164.67 136.92C164.55 136.924 164.43 136.902 164.318 136.858C164.206 136.813 164.105 136.746 164.02 136.66C163.854 136.49 163.762 136.262 163.762 136.025C163.762 135.788 163.854 135.56 164.02 135.39C164.194 135.221 164.428 135.128 164.67 135.13C164.789 135.129 164.906 135.152 165.016 135.196C165.126 135.241 165.226 135.307 165.31 135.39C165.396 135.471 165.464 135.569 165.51 135.677C165.557 135.785 165.581 135.902 165.58 136.02C165.582 136.181 165.541 136.34 165.46 136.48C165.374 136.612 165.257 136.722 165.12 136.8C164.984 136.882 164.828 136.923 164.67 136.92Z" fill="black"/>
<path d="M170.57 128.45H172.1V134.35C172.111 134.84 171.991 135.324 171.75 135.75C171.513 136.142 171.165 136.456 170.75 136.65C170.3 136.862 169.807 136.968 169.31 136.96C168.859 136.963 168.413 136.871 168 136.69C167.594 136.54 167.244 136.267 167 135.91C166.758 135.524 166.636 135.075 166.65 134.62H168.19C168.185 134.824 168.237 135.025 168.34 135.2C168.435 135.366 168.578 135.498 168.75 135.58C168.936 135.672 169.142 135.717 169.35 135.71C169.571 135.719 169.79 135.664 169.98 135.55C170.153 135.443 170.289 135.286 170.37 135.1C170.469 134.863 170.517 134.607 170.51 134.35L170.57 128.45Z" fill="black"/>
<path d="M178.4 130.76C178.388 130.593 178.338 130.432 178.253 130.288C178.168 130.143 178.05 130.021 177.91 129.93C177.58 129.719 177.192 129.614 176.8 129.63C176.517 129.619 176.234 129.667 175.97 129.77C175.763 129.852 175.58 129.987 175.44 130.16C175.322 130.323 175.255 130.519 175.25 130.72C175.244 130.88 175.29 131.038 175.38 131.17C175.462 131.305 175.575 131.418 175.71 131.5C175.858 131.591 176.015 131.665 176.18 131.72L176.7 131.88L177.5 132.07C177.818 132.144 178.129 132.245 178.43 132.37C178.717 132.493 178.987 132.654 179.23 132.85C179.464 133.037 179.655 133.273 179.79 133.54C179.937 133.835 180.009 134.161 180 134.49C180.006 134.952 179.874 135.405 179.62 135.79C179.34 136.18 178.955 136.482 178.51 136.66C177.392 137.067 176.167 137.067 175.05 136.66C174.591 136.482 174.194 136.173 173.91 135.77C173.628 135.354 173.475 134.863 173.47 134.36H175C175.015 134.627 175.113 134.882 175.28 135.09C175.45 135.285 175.667 135.433 175.91 135.52C176.19 135.615 176.484 135.662 176.78 135.66C177.08 135.666 177.379 135.615 177.66 135.51C177.893 135.426 178.1 135.281 178.26 135.09C178.401 134.914 178.479 134.696 178.48 134.47C178.484 134.268 178.413 134.072 178.28 133.92C178.13 133.764 177.95 133.642 177.75 133.56C177.488 133.459 177.221 133.372 176.95 133.3L175.95 133.06C175.34 132.927 174.771 132.649 174.29 132.25C174.086 132.07 173.926 131.845 173.82 131.595C173.715 131.344 173.667 131.072 173.68 130.8C173.673 130.337 173.817 129.884 174.09 129.51C174.375 129.122 174.763 128.821 175.21 128.64C175.715 128.424 176.261 128.319 176.81 128.33C177.356 128.318 177.899 128.423 178.4 128.64C178.827 128.827 179.196 129.124 179.47 129.5C179.734 129.863 179.874 130.301 179.87 130.75L178.4 130.76Z" fill="black"/>
</g>
<defs>
<filter id="filter0_d_303_17118" x="0.447754" y="0.702881" width="260" height="260" filterUnits="userSpaceOnUse" color-interpolation-filters="sRGB">
<feFlood flood-opacity="0" result="BackgroundImageFix"/>
<feColorMatrix in="SourceAlpha" type="matrix" values="0 0 0 0 0 0 0 0 0 0 0 0 0 0 0 0 0 0 127 0" result="hardAlpha"/>
<feOffset dy="4"/>
<feGaussianBlur stdDeviation="20"/>
<feComposite in2="hardAlpha" operator="out"/>
<feColorMatrix type="matrix" values="0 0 0 0 0.0367917 0 0 0 0 0.0348958 0 0 0 0 0.0484375 0 0 0 0.1 0"/>
<feBlend mode="normal" in2="BackgroundImageFix" result="effect1_dropShadow_303_17118"/>
<feBlend mode="normal" in="SourceGraphic" in2="effect1_dropShadow_303_17118" result="shape"/>
</filter>
</defs>
</svg>
