<svg width="261" height="261" viewBox="0 0 261 261" fill="none" xmlns="http://www.w3.org/2000/svg">
<g filter="url(#filter0_d_301_8902)">
<rect x="40.4478" y="36.7029" width="180" height="180" rx="32" fill="#1D1F23"/>
<rect x="40.9478" y="37.2029" width="179" height="179" rx="31.5" stroke="black"/>
</g>
<g clip-path="url(#clip0_301_8902)">
<path d="M146.201 116.711H163.619V119.926H156.709V136.84H153.254V119.926H146.201V116.711Z" fill="white"/>
<path d="M117.554 116.711V119.926H103.593V125.098H114.821V128.313H103.593V133.625H117.554V136.84H100.138V119.926H100.136V116.711H117.554Z" fill="white"/>
<path d="M126.252 116.72H121.73L137.925 136.848H142.459L134.361 126.791L142.446 116.735L137.925 116.742L132.097 123.979L126.252 116.72Z" fill="white"/>
<path d="M130.891 131.098L128.627 128.282L121.718 136.863H126.252L130.891 131.098Z" fill="white"/>
<path fill-rule="evenodd" clip-rule="evenodd" d="M100.259 136.84L84.0424 116.703H79.7239V136.831H83.1787V121.005L95.9185 136.84H100.259Z" fill="white"/>
<path d="M164.396 136.717C164.143 136.717 163.927 136.629 163.747 136.454C163.567 136.278 163.478 136.066 163.48 135.815C163.478 135.57 163.567 135.36 163.747 135.185C163.927 135.01 164.143 134.922 164.396 134.922C164.639 134.922 164.852 135.01 165.032 135.185C165.215 135.36 165.306 135.57 165.309 135.815C165.306 135.981 165.264 136.133 165.18 136.269C165.093 136.408 164.983 136.516 164.845 136.595C164.709 136.675 164.559 136.717 164.396 136.717Z" fill="white"/>
<path d="M170.292 128.237H171.823V134.136C171.821 134.678 171.704 135.141 171.475 135.531C171.243 135.921 170.922 136.218 170.51 136.428C170.1 136.636 169.621 136.742 169.075 136.742C168.576 136.742 168.129 136.652 167.731 136.477C167.333 136.302 167.017 136.039 166.786 135.693C166.551 135.347 166.437 134.915 166.437 134.398H167.97C167.973 134.625 168.024 134.821 168.122 134.984C168.221 135.148 168.356 135.273 168.53 135.36C168.705 135.448 168.907 135.492 169.133 135.492C169.379 135.492 169.59 135.441 169.761 135.337C169.932 135.236 170.063 135.084 170.154 134.881C170.243 134.68 170.29 134.431 170.292 134.136V128.237Z" fill="white"/>
<path d="M178.123 130.544C178.085 130.186 177.921 129.907 177.636 129.709C177.348 129.508 176.976 129.409 176.519 129.409C176.199 129.409 175.922 129.458 175.693 129.552C175.464 129.649 175.286 129.778 175.164 129.942C175.042 130.106 174.981 130.293 174.976 130.502C174.976 130.678 175.019 130.83 175.101 130.957C175.183 131.086 175.292 131.194 175.435 131.282C175.576 131.372 175.733 131.446 175.904 131.506C176.077 131.566 176.25 131.617 176.423 131.658L177.221 131.854C177.542 131.928 177.854 132.027 178.151 132.154C178.448 132.279 178.717 132.438 178.954 132.629C179.19 132.821 179.377 133.051 179.516 133.321C179.654 133.591 179.724 133.907 179.724 134.272C179.724 134.763 179.598 135.194 179.342 135.568C179.087 135.939 178.72 136.23 178.237 136.44C177.757 136.648 177.177 136.754 176.493 136.754C175.833 136.754 175.257 136.652 174.773 136.449C174.286 136.248 173.907 135.953 173.633 135.566C173.359 135.178 173.211 134.705 173.19 134.149H174.707C174.728 134.44 174.822 134.682 174.981 134.878C175.143 135.072 175.353 135.215 175.611 135.312C175.871 135.407 176.161 135.455 176.482 135.455C176.817 135.455 177.111 135.404 177.367 135.305C177.619 135.206 177.818 135.067 177.961 134.888C178.106 134.71 178.179 134.5 178.181 134.26C178.179 134.041 178.113 133.859 177.987 133.716C177.858 133.573 177.68 133.453 177.453 133.356C177.224 133.259 176.957 133.171 176.653 133.095L175.684 132.851C174.984 132.673 174.429 132.403 174.024 132.041C173.617 131.679 173.415 131.199 173.415 130.597C173.415 130.103 173.551 129.67 173.825 129.298C174.096 128.927 174.469 128.639 174.939 128.433C175.412 128.226 175.946 128.124 176.54 128.124C177.144 128.124 177.673 128.226 178.13 128.433C178.586 128.639 178.944 128.925 179.204 129.289C179.464 129.654 179.6 130.071 179.607 130.544H178.123Z" fill="white"/>
</g>
<defs>
<filter id="filter0_d_301_8902" x="0.447754" y="0.702881" width="260" height="260" filterUnits="userSpaceOnUse" color-interpolation-filters="sRGB">
<feFlood flood-opacity="0" result="BackgroundImageFix"/>
<feColorMatrix in="SourceAlpha" type="matrix" values="0 0 0 0 0 0 0 0 0 0 0 0 0 0 0 0 0 0 127 0" result="hardAlpha"/>
<feOffset dy="4"/>
<feGaussianBlur stdDeviation="20"/>
<feComposite in2="hardAlpha" operator="out"/>
<feColorMatrix type="matrix" values="0 0 0 0 0.0367917 0 0 0 0 0.0348958 0 0 0 0 0.0484375 0 0 0 0.1 0"/>
<feBlend mode="normal" in2="BackgroundImageFix" result="effect1_dropShadow_301_8902"/>
<feBlend mode="normal" in="SourceGraphic" in2="effect1_dropShadow_301_8902" result="shape"/>
</filter>
<clipPath id="clip0_301_8902">
<rect width="100" height="20.3046" fill="white" transform="translate(79.7239 116.703)"/>
</clipPath>
</defs>
</svg>
