<svg width="261" height="261" viewBox="0 0 261 261" fill="none" xmlns="http://www.w3.org/2000/svg">
<g filter="url(#filter0_d_303_17196)">
<rect x="40.1719" y="36.4058" width="180" height="180" rx="32" fill="white"/>
<rect x="40.6719" y="36.9058" width="179" height="179" rx="31.5" stroke="#878787"/>
</g>
<g clip-path="url(#clip0_303_17196)">
<path d="M169.57 95.4399C163.526 87.6119 155.296 81.7523 145.921 78.6021C136.546 75.452 126.447 75.1528 116.902 77.7425C107.357 80.3321 98.7948 85.6943 92.2976 93.1508C85.8005 100.607 81.6606 109.823 80.4015 119.633C79.1424 129.442 80.8208 139.405 85.2243 148.26C89.6278 157.116 96.5586 164.467 105.14 169.383C113.722 174.299 123.568 176.56 133.435 175.879C143.302 175.199 152.745 171.608 160.57 165.56C165.769 161.55 170.127 156.554 173.394 150.858C176.661 145.163 178.772 138.879 179.608 132.366C180.444 125.853 179.988 119.24 178.265 112.904C176.543 106.567 173.588 100.633 169.57 95.4399Z" fill="#929292"/>
<path d="M146.86 107.86L125.78 129.11L119.78 122.98C140.53 102.23 142.62 104.11 146.78 107.86H146.86Z" fill="white"/>
<path d="M125.78 129.69C125.594 129.682 125.416 129.607 125.28 129.48L119.28 123.48C119.157 123.342 119.089 123.164 119.089 122.98C119.089 122.795 119.157 122.617 119.28 122.48C139.74 102 142.53 102.94 147.36 107.31C147.442 107.377 147.507 107.463 147.55 107.56C147.6 107.651 147.621 107.756 147.61 107.86C147.627 107.96 147.617 108.062 147.582 108.156C147.547 108.251 147.488 108.335 147.41 108.4L126.32 129.48C126.175 129.618 125.981 129.694 125.78 129.69ZM120.86 123L125.78 127.92L145.78 107.92C145.088 107.056 144.102 106.476 143.011 106.292C141.919 106.107 140.798 106.331 139.86 106.92C136.24 108.54 130.41 113.5 120.86 123Z" fill="#929292"/>
<path d="M131.82 135L126.07 129.13L147.16 108.27C152.82 113.82 144.41 123.07 131.82 134.98V135Z" fill="white"/>
<path d="M131.82 135.73C131.634 135.72 131.457 135.646 131.32 135.52L125.45 129.77C125.406 129.666 125.383 129.553 125.383 129.44C125.383 129.326 125.406 129.214 125.45 129.11C125.39 128.935 125.39 128.745 125.45 128.57L146.53 107.48C146.679 107.347 146.871 107.273 147.07 107.27C147.27 107.271 147.462 107.346 147.61 107.48C148.296 108.107 148.838 108.874 149.2 109.73C149.555 110.588 149.725 111.511 149.7 112.44C149.7 118.07 143.28 125.15 132.36 135.44C132.22 135.591 132.026 135.681 131.82 135.69V135.73ZM127.16 129.11L131.86 133.81C140.2 125.94 148.16 117.81 148.2 112.31C148.242 111.146 147.854 110.006 147.11 109.11L127.16 129.11Z" fill="#929292"/>
<path d="M120 123.11L124.17 127.28L124.23 127.36C124.235 127.393 124.235 127.427 124.23 127.46C124.235 127.496 124.235 127.533 124.23 127.57L124.17 127.65L115.37 129.53C115.195 129.56 115.014 129.539 114.85 129.47C114.684 129.391 114.548 129.261 114.46 129.1C114.379 128.939 114.351 128.757 114.38 128.58C114.406 128.401 114.49 128.236 114.62 128.11L119.74 123C119.837 123.005 119.929 123.044 120 123.11Z" fill="white"/>
<path d="M115.16 130.36C114.882 130.353 114.611 130.278 114.37 130.14C114.128 130.004 113.924 129.807 113.78 129.57C113.616 129.264 113.56 128.912 113.62 128.57C113.67 128.232 113.828 127.92 114.07 127.68L119.16 122.56C119.343 122.397 119.58 122.307 119.825 122.307C120.07 122.307 120.307 122.397 120.49 122.56L124.66 126.72C124.775 126.84 124.858 126.988 124.902 127.148C124.945 127.309 124.948 127.478 124.91 127.64C124.859 127.803 124.766 127.95 124.642 128.067C124.518 128.185 124.366 128.268 124.2 128.31L115.41 130.18L115.16 130.36ZM119.82 124L115.12 128.7L122.91 127.04L119.82 124Z" fill="#929292"/>
<path d="M158.07 96.1499C156.984 95.1044 155.628 94.3833 154.154 94.0684C152.68 93.7534 151.147 93.857 149.729 94.3674C148.311 94.8779 147.063 95.7749 146.128 96.957C145.193 98.1392 144.607 99.5593 144.437 101.057C144.267 102.555 144.519 104.07 145.164 105.432C145.81 106.794 146.824 107.948 148.092 108.764C149.359 109.58 150.829 110.025 152.336 110.049C153.843 110.073 155.327 109.675 156.62 108.9L151 103.23L158.07 96.1499Z" fill="white"/>
<path d="M152.45 110.81C150.726 110.779 149.049 110.244 147.625 109.272C146.201 108.3 145.092 106.933 144.436 105.339C143.779 103.745 143.603 101.993 143.928 100.3C144.254 98.6071 145.068 97.0463 146.27 95.8099C147.939 94.1743 150.183 93.2582 152.52 93.2582C154.857 93.2582 157.101 94.1743 158.77 95.8099C158.889 95.91 158.972 96.0469 159.004 96.199C159.037 96.3512 159.018 96.5098 158.95 96.6499C158.908 96.7446 158.847 96.8297 158.77 96.8999L152 103.23L157.12 108.28C157.206 108.354 157.268 108.451 157.3 108.56C157.33 108.671 157.33 108.789 157.3 108.9C157.288 109.01 157.25 109.116 157.19 109.21C157.136 109.303 157.06 109.381 156.97 109.44C155.591 110.302 154.006 110.779 152.38 110.82L152.45 110.81ZM152.45 94.6499C151.356 94.6391 150.273 94.8737 149.282 95.3364C148.29 95.7992 147.415 96.4784 146.721 97.324C146.026 98.1696 145.53 99.1601 145.269 100.223C145.008 101.285 144.988 102.393 145.212 103.464C145.435 104.535 145.896 105.543 146.56 106.412C147.224 107.282 148.075 107.992 149.049 108.489C150.024 108.987 151.098 109.259 152.191 109.287C153.285 109.315 154.371 109.097 155.37 108.65L150.45 103.73C150.377 103.669 150.318 103.592 150.277 103.506C150.236 103.42 150.215 103.325 150.215 103.23C150.215 103.134 150.236 103.04 150.277 102.954C150.318 102.867 150.377 102.791 150.45 102.73L157 96.1899C155.708 95.1993 154.128 94.6585 152.5 94.6499H152.45Z" fill="#929292"/>
<path d="M158.2 96.2699L151.07 103.36L156.74 109C157.309 108.675 157.839 108.286 158.32 107.84C159.804 106.268 160.621 104.182 160.599 102.021C160.576 99.8591 159.716 97.7905 158.2 96.2499V96.2699Z" fill="white"/>
<path d="M156.61 109.65C156.521 109.669 156.429 109.669 156.34 109.65C156.252 109.615 156.173 109.561 156.11 109.49L150.45 103.82C150.377 103.759 150.317 103.682 150.277 103.596C150.236 103.51 150.215 103.415 150.215 103.32C150.215 103.224 150.236 103.13 150.277 103.044C150.317 102.957 150.377 102.881 150.45 102.82L157.53 95.8199C157.6 95.7199 157.692 95.6377 157.8 95.5799C157.907 95.521 158.028 95.4901 158.15 95.4899C158.276 95.4888 158.4 95.5198 158.51 95.5799C158.618 95.6377 158.71 95.7199 158.78 95.8199C160.438 97.4518 161.384 99.6734 161.41 102C161.408 103.165 161.174 104.317 160.72 105.39C160.273 106.464 159.613 107.437 158.78 108.25C158.288 108.772 157.726 109.223 157.11 109.59C156.949 109.651 156.771 109.651 156.61 109.59V109.65ZM152 103.23L156.71 107.94C157.032 107.71 157.339 107.459 157.63 107.19C158.318 106.511 158.865 105.703 159.241 104.813C159.617 103.922 159.814 102.966 159.82 102C159.825 100.239 159.176 98.5397 158 97.2299L152 103.23Z" fill="#929292"/>
<path d="M147.74 108.73C147.174 108.203 146.429 107.91 145.655 107.91C144.881 107.91 144.136 108.203 143.57 108.73L124.7 127.56L127.82 130.73L147.82 113.23C148.125 112.95 148.366 112.61 148.53 112.23C148.68 111.838 148.748 111.419 148.73 111C148.73 110.579 148.641 110.164 148.47 109.78C148.297 109.401 148.048 109.06 147.74 108.78V108.73Z" fill="white"/>
<path d="M127.66 131.48C127.474 131.477 127.296 131.406 127.16 131.28L124 128.11C123.932 128.041 123.879 127.96 123.843 127.871C123.807 127.782 123.789 127.686 123.79 127.59C123.788 127.494 123.806 127.398 123.842 127.309C123.878 127.219 123.932 127.138 124 127.07L142.87 108.27C143.416 107.728 144.112 107.363 144.867 107.22C145.623 107.077 146.404 107.164 147.11 107.47C147.814 107.772 148.411 108.281 148.82 108.93C149.231 109.581 149.44 110.34 149.42 111.11C149.397 111.632 149.27 112.144 149.047 112.616C148.824 113.088 148.508 113.511 148.12 113.86L128.12 131.36C127.973 131.458 127.795 131.5 127.62 131.48H127.66ZM125.45 127.56L127.53 129.69L147.11 112.69C147.353 112.483 147.55 112.228 147.688 111.94C147.826 111.652 147.901 111.339 147.91 111.02C147.918 110.701 147.859 110.384 147.737 110.089C147.615 109.795 147.432 109.529 147.2 109.31C146.76 108.876 146.168 108.632 145.55 108.63C144.935 108.63 144.345 108.875 143.91 109.31L125.45 127.56Z" fill="#929292"/>
<path d="M110.07 149C110.02 149.074 109.992 149.161 109.99 149.25C109.991 149.339 110.019 149.427 110.07 149.5L110.91 153.13C110.94 153.344 110.909 153.563 110.82 153.76C110.721 153.949 110.572 154.108 110.39 154.22C110.205 154.331 109.99 154.379 109.775 154.357C109.561 154.336 109.359 154.245 109.2 154.1L103.49 148.6L121.28 130.69H127.45L131.62 134.86C125.116 140.535 117.865 145.292 110.07 149Z" fill="white"/>
<path d="M109.7 155.15C109.466 155.147 109.235 155.098 109.021 155.006C108.806 154.913 108.612 154.778 108.45 154.61L103 149.15C102.921 149.09 102.859 149.011 102.82 148.92C102.774 148.83 102.75 148.731 102.75 148.63C102.75 148.529 102.774 148.43 102.82 148.34C102.859 148.249 102.921 148.17 103 148.11L120.92 130.11C121.018 130.003 121.148 129.929 121.29 129.9H127.5C127.661 129.84 127.839 129.84 128 129.9L132.17 134.07C132.25 134.139 132.309 134.229 132.34 134.33C132.369 134.435 132.369 134.545 132.34 134.65C132.35 134.754 132.33 134.858 132.28 134.95C132.24 135.046 132.174 135.129 132.09 135.19L131.76 135.49C125.233 140.926 118.055 145.528 110.39 149.19L111.18 152.57C111.243 152.83 111.247 153.101 111.19 153.363C111.132 153.625 111.016 153.87 110.85 154.08C110.687 154.291 110.479 154.462 110.24 154.58C110.001 154.701 109.738 154.769 109.47 154.78L109.7 155.15ZM104.62 148.61L109.53 153.61C109.577 153.652 109.637 153.676 109.7 153.68C109.76 153.677 109.817 153.652 109.86 153.61C109.891 153.57 109.909 153.521 109.91 153.47C109.909 153.416 109.891 153.364 109.86 153.32L109 149.65C108.936 149.388 108.964 149.113 109.08 148.87C109.192 148.625 109.387 148.426 109.63 148.31C117.101 144.702 124.106 140.199 130.49 134.9L127.07 131.48H121.49L104.62 148.61Z" fill="#929292"/>
<path d="M99.2 152.9L103.37 148.73L109.78 155.15L99.57 154.44C99.3952 154.429 99.2294 154.358 99.1 154.24C98.9668 154.129 98.8723 153.978 98.83 153.81C98.7757 153.641 98.7757 153.459 98.83 153.29C98.8938 153.127 99.0099 152.99 99.16 152.9H99.2Z" fill="white"/>
<path d="M109.91 155.77L99.7399 155.07C99.4474 155.039 99.1687 154.929 98.9329 154.754C98.6972 154.578 98.5131 154.341 98.3999 154.07C98.2975 153.79 98.2751 153.488 98.3352 153.197C98.3952 152.905 98.5354 152.636 98.7399 152.42L102.91 148.25C103.05 148.116 103.236 148.041 103.43 148.04C103.623 148.043 103.809 148.118 103.95 148.25L110.32 154.63C110.41 154.748 110.459 154.892 110.46 155.04C110.459 155.191 110.41 155.338 110.32 155.46C110.225 155.614 110.08 155.73 109.91 155.79V155.77ZM99.7399 153.44L108.07 153.98L103.49 149.69L99.7399 153.44Z" fill="#929292"/>
<path d="M128 131.19L119.58 132.48L124.46 127.65L128 131.19Z" fill="white"/>
<path d="M119.61 133.27C119.473 133.277 119.337 133.242 119.22 133.17C119.102 133.095 119.009 132.987 118.95 132.86C118.861 132.732 118.818 132.577 118.827 132.421C118.836 132.265 118.897 132.117 119 132L123.83 127.13C123.975 126.99 124.169 126.912 124.37 126.91C124.572 126.91 124.766 126.989 124.91 127.13L128.46 130.67C128.528 130.781 128.562 130.91 128.56 131.04C128.564 131.174 128.529 131.305 128.46 131.42C128.423 131.558 128.346 131.683 128.24 131.78C128.137 131.875 128.008 131.937 127.87 131.96L119.54 133.25L119.61 133.27ZM124.49 128.73L121.78 131.44L126.45 130.73L124.49 128.73Z" fill="#929292"/>
<path d="M128 131.19L122.13 131.94C121.977 131.99 121.813 131.99 121.66 131.94C121.512 131.879 121.388 131.77 121.31 131.63C121.231 131.487 121.199 131.322 121.22 131.16C121.241 131.002 121.311 130.855 121.42 130.74L124.42 127.74L128 131.19Z" fill="white"/>
<path d="M122 132.73C121.728 132.73 121.46 132.657 121.226 132.518C120.992 132.379 120.8 132.179 120.67 131.94C120.51 131.654 120.447 131.324 120.49 131C120.536 130.677 120.687 130.378 120.92 130.15L123.92 127.15C124.064 127.009 124.258 126.93 124.46 126.93C124.662 126.932 124.855 127.01 125 127.15L128.54 130.69C128.647 130.79 128.723 130.918 128.76 131.06C128.8 131.197 128.8 131.343 128.76 131.48C128.717 131.621 128.63 131.744 128.51 131.83C128.398 131.918 128.262 131.971 128.12 131.98L122.28 132.73H122ZM122 131.19L126.42 130.65L124.42 128.65L122 131.19ZM158.24 101.07C158.163 100.936 158.038 100.835 157.89 100.79C157.821 100.76 157.746 100.745 157.67 100.745C157.594 100.745 157.52 100.76 157.45 100.79C157.38 100.822 157.318 100.87 157.27 100.93C157.22 100.988 157.183 101.056 157.16 101.13C157.128 101.201 157.112 101.277 157.112 101.355C157.112 101.432 157.128 101.509 157.16 101.58C157.315 101.879 157.382 102.217 157.354 102.553C157.326 102.889 157.203 103.21 157 103.48C156.951 103.533 156.911 103.594 156.88 103.66C156.84 103.762 156.83 103.874 156.851 103.982C156.873 104.09 156.924 104.19 157 104.27C157.052 104.295 157.108 104.308 157.165 104.308C157.222 104.308 157.279 104.295 157.33 104.27C157.428 104.3 157.532 104.3 157.63 104.27C157.723 104.238 157.805 104.183 157.87 104.11C158.215 103.689 158.434 103.18 158.501 102.64C158.568 102.1 158.481 101.552 158.25 101.06L158.24 101.07Z" fill="#929292"/>
</g>
<defs>
<filter id="filter0_d_303_17196" x="0.171875" y="0.405762" width="260" height="260" filterUnits="userSpaceOnUse" color-interpolation-filters="sRGB">
<feFlood flood-opacity="0" result="BackgroundImageFix"/>
<feColorMatrix in="SourceAlpha" type="matrix" values="0 0 0 0 0 0 0 0 0 0 0 0 0 0 0 0 0 0 127 0" result="hardAlpha"/>
<feOffset dy="4"/>
<feGaussianBlur stdDeviation="20"/>
<feComposite in2="hardAlpha" operator="out"/>
<feColorMatrix type="matrix" values="0 0 0 0 0.0367917 0 0 0 0 0.0348958 0 0 0 0 0.0484375 0 0 0 0.1 0"/>
<feBlend mode="normal" in2="BackgroundImageFix" result="effect1_dropShadow_303_17196"/>
<feBlend mode="normal" in="SourceGraphic" in2="effect1_dropShadow_303_17196" result="shape"/>
</filter>
<clipPath id="clip0_303_17196">
<rect width="100" height="100" fill="white" transform="translate(80 75.9999)"/>
</clipPath>
</defs>
</svg>
