<?xml version="1.0" standalone="no"?>
<!DOCTYPE svg PUBLIC "-//W3C//DTD SVG 20010904//EN"
 "http://www.w3.org/TR/2001/REC-SVG-20010904/DTD/svg10.dtd">
<svg version="1.0" xmlns="http://www.w3.org/2000/svg"
 width="438.000000pt" height="570.000000pt" viewBox="0 0 438.000000 570.000000"
 preserveAspectRatio="xMidYMid meet">
<metadata>
Created by potrace 1.16, written by Peter Selinger 2001-2019
</metadata>
<g transform="translate(0.000000,570.000000) scale(0.100000,-0.100000)"
fill="#000000" stroke="none">
<path d="M868 4934 c-25 -13 -48 -42 -48 -59 0 -4 15 3 34 14 94 58 216 -18
216 -135 0 -90 31 -459 41 -476 15 -28 11 -47 -16 -73 -13 -14 -19 -25 -14
-25 6 0 24 13 40 29 22 23 29 39 29 69 0 42 -36 450 -46 519 -7 47 -57 114
-105 138 -36 19 -96 19 -131 -1z"/>
<path d="M2251 4559 c-141 -11 -138 -9 -105 -69 15 -28 32 -54 38 -59 11 -9
315 3 364 14 27 6 28 29 6 85 l-16 40 -92 -1 c-50 -1 -138 -5 -195 -10z"/>
<path d="M1323 4360 c-26 -10 -58 -58 -74 -110 -6 -19 -20 -54 -32 -77 -19
-41 -20 -47 -6 -145 17 -124 18 -461 2 -499 -9 -19 -23 -29 -57 -38 -53 -13
-79 -14 -72 -3 8 13 -77 10 -87 -3 -5 -6 -6 -2 -3 9 5 15 2 17 -15 13 -15 -4
-19 -2 -15 9 3 8 1 14 -4 14 -6 0 -10 -5 -10 -11 0 -5 -5 -7 -12 -3 -8 5 -9 2
-5 -9 3 -10 2 -17 -3 -17 -6 0 -10 5 -10 11 0 5 -11 -1 -24 -15 -13 -15 -30
-26 -39 -26 -13 0 -33 -29 -25 -35 6 -4 94 -34 113 -38 17 -4 17 -5 -3 -6 -32
-1 -17 -21 16 -22 23 0 24 -1 7 -8 -35 -14 31 -23 111 -16 48 5 74 4 78 -4 4
-6 2 -11 -4 -11 -6 0 -8 -4 -5 -10 4 -6 -24 -10 -77 -11 -46 -1 -96 -5 -113
-10 -20 -6 -4 -7 49 -4 43 3 100 5 126 5 l47 0 -4 52 c-3 42 1 58 22 87 17 26
29 65 41 136 9 55 19 102 21 105 10 11 23 -30 23 -76 0 -28 7 -85 17 -125 16
-75 42 -146 43 -120 0 11 4 11 18 -2 24 -22 58 -22 71 1 14 23 14 -1 0 -32 -7
-14 -19 -27 -28 -30 -9 -3 -5 -4 8 -3 35 3 59 50 71 138 11 87 11 419 0 499
-7 54 -7 54 -9 -30 -2 -47 -5 -79 -8 -72 -2 6 -17 12 -33 12 -31 0 -46 14 -53
50 -2 14 -6 -45 -8 -130 -2 -93 -4 -121 -6 -70 -4 136 -23 352 -34 388 -6 17
-15 32 -20 32 -5 0 -9 7 -9 15 0 22 17 18 23 -4 4 -15 15 -20 48 -23 40 -3 45
-6 57 -38 11 -33 12 -31 6 30 -3 36 -12 96 -21 133 -14 58 -19 68 -35 64 -10
-3 -16 -1 -12 4 3 5 12 9 20 9 19 0 18 9 -6 48 -21 34 -23 35 -57 22z"/>
<path d="M2526 4345 c-212 -30 -333 -74 -406 -147 -72 -72 -104 -162 -116
-323 -20 -276 89 -460 309 -526 38 -11 71 -19 72 -17 2 2 -24 15 -58 28 -80
31 -137 63 -167 95 -22 23 -22 25 -5 19 17 -6 15 -2 -7 22 -36 39 -88 151 -88
190 0 17 7 44 15 60 8 16 16 45 19 64 2 19 10 46 18 60 12 23 13 15 13 -80 0
-98 2 -110 32 -170 84 -170 233 -210 363 -96 20 17 19 14 -5 -15 -17 -20 -33
-34 -37 -32 -4 2 -14 -7 -22 -19 -9 -12 -16 -19 -16 -15 0 4 -14 0 -31 -9 -36
-18 -111 -20 -152 -5 -29 11 -34 7 -14 -13 7 -7 18 -11 26 -8 8 3 11 1 8 -4
-3 -5 20 -9 51 -9 97 0 209 81 262 189 44 89 61 182 50 275 -5 42 -11 85 -15
96 -3 11 2 7 11 -10 10 -16 25 -58 35 -93 15 -57 15 -73 4 -157 -8 -52 -16
-105 -20 -117 -7 -22 -6 -22 7 -3 26 36 47 102 54 168 23 221 -121 451 -296
474 -55 8 -139 -34 -181 -90 -44 -57 -54 -66 -39 -39 6 13 28 41 47 63 20 22
34 42 31 44 -7 8 -118 -68 -150 -102 -14 -15 -42 -53 -62 -83 -44 -67 -47 -57
-6 16 38 66 118 139 198 182 34 18 65 33 69 33 5 0 25 4 47 10 21 6 55 8 75 4
21 -3 50 -1 66 6 17 7 39 14 50 16 11 2 45 13 75 24 181 68 649 17 783 -85 23
-17 57 -56 75 -86 40 -67 43 -44 3 25 -34 59 -80 94 -177 135 -125 52 -196 62
-459 65 -168 3 -270 -1 -339 -10z"/>
<path d="M3232 4183 c-39 -19 -69 -56 -107 -133 -15 -30 -38 -68 -50 -85 -28
-37 -95 -167 -95 -183 0 -15 26 -16 35 -2 15 24 22 5 28 -67 9 -113 58 -243
96 -257 64 -24 70 -24 123 1 l53 24 -25 -27 c-21 -22 -21 -25 -5 -16 34 18 93
85 124 142 18 33 31 47 31 36 1 -82 -149 -226 -235 -226 -23 0 -25 -2 -15 -15
6 -8 9 -19 5 -25 -9 -15 32 -12 64 5 16 8 61 47 101 87 126 129 167 249 150
439 -14 150 -66 250 -151 293 -61 30 -82 32 -127 9z"/>
<path d="M760 4028 c0 -24 7 -56 15 -72 17 -31 20 -60 5 -36 -13 20 -14 -65 0
-89 8 -16 4 -19 -28 -25 -20 -3 -67 -6 -104 -6 -97 0 -84 -19 15 -22 l82 -3 3
-40 c4 -60 14 -76 22 -35 6 26 8 13 9 -47 0 -48 5 -83 11 -83 6 0 10 91 10
250 -1 242 -1 250 -20 250 -17 0 -20 -7 -20 -42z"/>
<path d="M2277 3151 c10 -10 35 -21 57 -24 42 -7 58 -17 39 -24 -18 -7 -16
-43 2 -43 8 0 15 -9 15 -20 0 -13 -10 -22 -32 -28 -32 -9 -33 -9 -8 -16 14 -4
97 -5 185 -4 155 3 158 3 106 16 -30 7 -59 17 -65 21 -6 5 -27 14 -46 19 -31
9 -25 10 48 11 82 1 87 4 83 39 -3 21 26 42 58 42 17 0 31 4 31 9 0 12 -132
21 -322 21 -164 0 -168 -1 -151 -19z"/>
<path d="M1982 2924 c-32 -22 -61 -85 -70 -153 -8 -53 -7 -59 7 -52 9 5 25 5
35 2 23 -9 31 -41 10 -41 -8 0 -14 6 -14 12 0 28 -39 -31 -53 -80 l-15 -52 28
-20 c15 -11 33 -20 39 -20 6 0 11 -4 11 -9 0 -5 -13 -8 -30 -7 -27 2 -30 -1
-30 -29 0 -48 29 -121 60 -155 36 -39 95 -42 127 -7 58 62 87 170 87 322 1
143 -21 221 -76 270 -42 39 -80 45 -116 19z"/>
<path d="M1130 2801 c0 -32 4 -41 23 -47 21 -7 21 -7 2 -15 -13 -5 -15 -8 -5
-8 25 -1 37 13 36 39 -1 16 5 26 17 28 9 2 17 -2 17 -8 0 -6 -4 -8 -10 -5 -6
3 -7 -1 -4 -10 4 -8 1 -22 -6 -29 -8 -11 -8 -20 -1 -35 18 -33 13 -69 -11 -84
-17 -11 -40 -13 -88 -7 -36 3 -67 3 -70 -1 -3 -4 -21 -10 -40 -13 -19 -3 -52
-8 -72 -11 -21 -3 -38 -10 -38 -15 0 -5 12 -8 28 -5 15 2 61 7 102 10 41 3 95
8 120 11 80 10 126 -22 100 -71 -19 -35 -52 -45 -148 -45 -106 0 -227 -11
-214 -19 14 -8 261 -6 292 3 63 18 80 -58 20 -92 -28 -16 -30 -21 -30 -74 0
-49 3 -58 18 -58 112 0 233 134 249 274 l6 51 -24 -30 c-33 -42 -59 -62 -94
-75 -26 -9 -25 -7 14 27 l44 37 -22 17 -22 18 21 29 c47 64 34 145 -33 196
-39 30 -68 41 -129 50 l-48 7 0 -40z"/>
<path d="M3170 2680 c-12 -7 -14 -29 -12 -107 2 -54 -2 -136 -8 -183 -12 -93
-11 -101 40 -183 16 -26 33 -60 37 -75 3 -15 17 -52 31 -82 29 -67 53 -141 47
-150 -5 -8 52 -70 100 -110 23 -19 39 -24 68 -22 47 4 67 -11 67 -50 0 -24 23
-49 34 -37 10 11 14 122 7 179 -5 36 -9 57 -10 46 -1 -12 -6 -16 -17 -12 -9 3
-19 6 -24 6 -17 0 -20 34 -5 56 19 30 33 30 45 2 5 -15 7 17 4 87 -7 153 -9
158 -42 150 -71 -17 -145 -67 -185 -124 l-16 -24 -24 24 c-13 13 -32 42 -41
64 -49 113 -47 105 -30 105 27 0 149 69 180 101 24 25 29 38 27 74 -1 24 -7
53 -13 65 -15 29 -69 60 -102 60 -23 0 -28 4 -28 25 0 35 -24 79 -56 104 -29
23 -51 26 -74 11z"/>
<path d="M1701 2601 c-8 -5 -30 -9 -49 -9 -37 0 -56 -14 -67 -49 -5 -19 -2
-23 14 -23 28 0 36 -19 15 -35 -15 -11 -16 -15 -5 -29 20 -24 5 -19 -20 7 -20
20 -21 20 -14 2 4 -11 18 -48 30 -82 21 -62 35 -87 35 -65 0 7 11 12 25 12 25
0 55 41 55 75 0 9 9 15 25 15 32 0 64 32 72 71 3 19 15 35 29 41 31 14 33 43
2 35 -14 -4 -31 2 -50 19 -30 24 -72 31 -97 15z"/>
<path d="M3596 2203 c4 -93 8 -187 9 -210 0 -24 3 -43 6 -43 10 0 19 70 19
153 0 105 18 138 54 101 15 -14 17 -13 25 8 6 13 10 21 11 18 1 -3 8 -104 16
-225 16 -254 15 -245 24 -240 9 5 20 -55 20 -107 0 -27 -4 -38 -15 -38 -8 0
-15 -4 -15 -10 0 -5 15 -10 33 -10 l32 0 -3 66 c-3 51 -1 65 9 59 8 -6 11 -3
6 7 -3 9 0 21 6 27 8 8 5 11 -11 11 -14 0 -27 9 -34 26 -15 32 -9 36 89 67 84
25 99 42 21 21 -29 -7 -70 -14 -90 -14 -33 0 -37 3 -43 32 -9 40 3 49 92 73
38 10 73 22 78 28 7 6 2 7 -15 3 -45 -12 -137 -19 -142 -10 -3 5 -9 23 -12 40
-8 35 3 42 97 65 26 6 50 16 53 21 4 6 -1 8 -12 5 -11 -3 -35 -8 -56 -11 l-36
-7 -7 51 c-4 27 -11 52 -16 56 -5 3 -9 0 -9 -5 0 -6 -4 -11 -10 -11 -5 0 -7
13 -4 29 4 16 1 32 -5 35 -14 9 -15 76 -1 76 6 0 10 5 10 10 0 6 -13 10 -30
10 -22 0 -30 -5 -30 -17 0 -14 -2 -15 -9 -5 -7 11 -10 10 -15 -3 -3 -9 -6 -27
-6 -40 0 -12 -7 -25 -15 -29 -12 -4 -15 3 -15 33 0 55 -8 71 -38 71 l-25 0 9
-167z"/>
<path d="M1145 2199 c-3 -9 -5 -40 -3 -70 l3 -53 59 -31 c74 -37 167 -41 231
-10 49 25 51 37 5 43 -19 2 -36 8 -38 13 -2 5 -16 9 -32 9 -15 0 -32 6 -38 13
-6 7 -27 19 -47 27 -19 7 -35 19 -35 25 0 6 -10 12 -22 12 -40 2 -59 9 -68 23
-8 12 -10 12 -15 -1z"/>
<path d="M2060 2082 c0 -5 -11 -13 -24 -16 -36 -9 -69 -61 -70 -111 -1 -31 6
-51 27 -78 15 -21 25 -42 22 -47 -6 -10 34 -30 60 -30 7 0 16 12 19 26 4 14
22 41 40 59 l34 34 44 -40 c45 -40 74 -54 43 -19 -18 20 -17 20 23 20 22 0 43
4 46 9 3 4 -26 24 -64 43 -47 24 -80 49 -102 79 -33 43 -98 90 -98 71z"/>
<path d="M3003 1988 c-6 -13 -34 -49 -62 -80 -48 -53 -50 -57 -33 -70 10 -7
21 -20 24 -29 8 -20 41 -30 59 -18 12 8 11 11 -1 19 -13 9 -13 10 0 10 22 0
80 79 80 107 0 32 -27 83 -44 83 -7 0 -18 -10 -23 -22z"/>
<path d="M1470 1791 c0 -9 -83 -11 -337 -10 -583 1 -599 1 -583 -15 13 -13 90
-15 476 -18 482 -3 506 -1 463 38 -11 10 -19 12 -19 5z"/>
<path d="M1969 1725 c-4 -33 -17 -79 -29 -103 -30 -57 -37 -123 -16 -141 22
-19 20 -63 -5 -84 -36 -31 -19 -42 74 -45 95 -3 95 -3 77 57 -8 27 -6 38 12
61 11 15 24 50 29 76 5 27 12 56 14 65 3 10 0 17 -7 16 -7 0 -41 1 -75 1 l-62
2 -3 78 -3 77 -6 -60z"/>
<path d="M2945 1740 c-3 -5 -19 -10 -36 -10 l-29 0 20 -20 c31 -31 22 -118
-15 -146 -12 -9 -10 -18 9 -58 13 -27 29 -52 37 -57 11 -8 10 -13 -8 -28 -13
-11 -23 -24 -23 -30 0 -13 155 -14 185 -1 11 5 15 9 8 9 -6 1 -19 8 -27 17
-15 14 -14 18 4 41 22 29 26 73 8 91 -15 15 -54 16 -63 2 -3 -5 -11 -10 -18
-10 -7 0 -5 7 5 16 9 9 28 17 42 17 14 0 26 3 26 8 0 14 -35 19 -70 9 -55 -16
-57 -14 -59 40 0 28 -5 60 -11 70 -10 18 -7 20 24 20 27 0 34 3 30 15 -7 17
-30 20 -39 5z"/>
<path d="M3648 1569 c-56 -16 -124 -87 -142 -150 -9 -29 -16 -64 -16 -78 0
-14 -4 -21 -8 -16 -7 11 -48 12 -59 2 -3 -4 -17 3 -31 13 -33 26 -41 17 -15
-18 17 -22 28 -27 63 -27 43 0 43 0 60 -50 19 -57 62 -105 94 -105 37 0 86 50
97 99 7 31 6 47 -2 57 -18 22 -26 16 -21 -15 2 -15 -4 -43 -13 -61 -14 -28
-21 -32 -50 -28 -19 2 -31 0 -29 -4 3 -4 17 -8 30 -8 29 0 28 -23 0 -28 -40
-8 -106 75 -105 133 0 20 0 20 14 1 12 -16 15 -17 15 -4 0 9 6 19 13 21 6 3 0
6 -15 6 -25 1 -28 5 -27 34 1 37 17 85 18 54 1 -10 6 -15 11 -12 8 5 8 11 0
20 -16 19 9 74 48 107 25 21 46 28 99 32 38 4 91 9 118 11 28 3 77 5 109 5
103 0 56 8 -84 13 -80 4 -150 2 -172 -4z"/>
<path d="M1486 1178 c-5 -14 -9 -49 -31 -230 -21 -178 -55 -226 -170 -247 -33
-6 -161 -10 -285 -10 -124 0 -263 -3 -310 -7 -47 -4 -101 -7 -121 -8 -36 -1
-37 -2 -24 -26 7 -14 24 -35 37 -46 48 -44 86 -49 388 -49 409 0 471 18 537
153 27 54 28 65 31 224 3 141 1 170 -12 190 -9 12 -16 33 -16 45 0 24 -18 32
-24 11z"/>
<path d="M1697 1183 c-15 -24 -37 -123 -37 -163 0 -26 -8 -62 -17 -81 -14 -27
-17 -62 -18 -172 l0 -139 28 -22 c16 -13 56 -32 90 -44 56 -20 84 -22 312 -23
259 -2 321 5 346 39 11 14 11 15 -1 5 -8 -7 -30 -13 -50 -13 l-36 0 0 96 1 96
-45 16 c-49 18 -193 23 -270 9 -77 -14 -84 -25 -89 -129 l-3 -90 -59 4 c-52 4
-63 9 -107 49 -28 24 -57 58 -66 76 -24 47 -20 151 9 258 29 103 44 235 27
235 -6 0 -13 -3 -15 -7z"/>
<path d="M2886 1168 c-3 -13 -7 -50 -11 -83 -3 -32 -11 -62 -17 -66 -6 -4 -25
2 -42 12 -17 10 -38 19 -46 18 -8 0 -3 -5 13 -11 41 -15 33 -27 -15 -21 l-43
4 28 -18 c32 -20 43 -52 29 -80 -5 -10 -6 -27 -1 -38 12 -32 10 -83 -5 -120
-13 -29 -20 -34 -60 -40 -61 -10 -92 0 -111 33 l-16 27 6 -30 c10 -50 38 -88
70 -97 17 -4 80 -5 140 -2 90 5 120 3 165 -11 47 -15 106 -19 405 -22 453 -6
446 -7 462 10 12 11 7 13 -32 10 -30 -2 -53 2 -70 13 -14 9 -32 14 -40 10 -21
-8 -56 29 -48 50 4 10 0 20 -10 26 -10 5 -17 15 -17 21 0 7 -14 25 -31 40 -18
15 -27 31 -23 38 11 18 -124 5 -168 -17 -21 -9 -41 -27 -44 -38 -22 -71 -127
-136 -220 -136 -66 0 -141 24 -175 56 -14 13 -30 24 -36 24 -35 0 -44 159 -13
229 31 68 24 231 -10 231 -5 0 -12 -10 -14 -22z"/>
</g>
</svg>
